<?xml version="1.0" encoding="UTF-8" standalone="no"?>
<!-- Created with Inkscape (http://www.inkscape.org/) -->

<svg
   xmlns:dc="http://purl.org/dc/elements/1.1/"
   xmlns:cc="http://creativecommons.org/ns#"
   xmlns:rdf="http://www.w3.org/1999/02/22-rdf-syntax-ns#"
   xmlns:svg="http://www.w3.org/2000/svg"
   xmlns="http://www.w3.org/2000/svg"
   xmlns:xlink="http://www.w3.org/1999/xlink"
   xmlns:sodipodi="http://sodipodi.sourceforge.net/DTD/sodipodi-0.dtd"
   xmlns:inkscape="http://www.inkscape.org/namespaces/inkscape"
   width="210mm"
   height="210mm"
   viewBox="0 0 210 210"
   version="1.1"
   id="svg8"
   inkscape:version="0.92.2 (5c3e80d, 2017-08-06)"
   sodipodi:docname="openemm.svg">
  <defs
     id="defs2">
    <clipPath
       clipPathUnits="userSpaceOnUse"
       id="clipPath323">
      <use
         x="0"
         y="0"
         xlink:href="#g319"
         id="use325"
         width="100%"
         height="100%" />
    </clipPath>
    <clipPath
       clipPathUnits="userSpaceOnUse"
       id="clipPath3715">
      <rect
         style="fill:#e6e6e6;fill-opacity:1;stroke-width:0.22414887"
         id="rect3717"
         width="177.47997"
         height="177.84953"
         x="315.35159"
         y="12.915793" />
    </clipPath>
  </defs>
  <sodipodi:namedview
     id="base"
     pagecolor="#ffffff"
     bordercolor="#666666"
     borderopacity="1.0"
     inkscape:pageopacity="0.0"
     inkscape:pageshadow="2"
     inkscape:zoom="0.7"
     inkscape:cx="946.67882"
     inkscape:cy="484.34559"
     inkscape:document-units="mm"
     inkscape:current-layer="g319"
     showgrid="false"
     inkscape:window-width="1880"
     inkscape:window-height="1019"
     inkscape:window-x="20"
     inkscape:window-y="20"
     inkscape:window-maximized="0" />
  <metadata
     id="metadata5">
    <rdf:RDF>
      <cc:Work
         rdf:about="">
        <dc:format>image/svg+xml</dc:format>
        <dc:type
           rdf:resource="http://purl.org/dc/dcmitype/StillImage" />
        <dc:title></dc:title>
      </cc:Work>
    </rdf:RDF>
  </metadata>
  <g
     inkscape:label="Ebene 1"
     inkscape:groupmode="layer"
     id="layer1"
     transform="translate(0,-87)">
    <g
       id="g321"
       clip-path="url(#clipPath323)">
      <g
         inkscape:label="Clip"
         id="g319">
        <g
           transform="matrix(1.3834224,0,0,1.3231657,-458.1427,57.81502)"
           id="g262"
           clip-path="url(#clipPath3715)">
          <path
             inkscape:connector-curvature="0"
             id="path278"
             d="M 315.35159,120.9928 V 12.915794 h 88.9 88.9 V 120.9928 229.0698 h -88.9 -88.9 z"
             style="fill:#fdfdfd;stroke-width:0.25400001" />
          <path
             inkscape:connector-curvature="0"
             id="path276"
             d="m 341.76595,228.84641 c -6.96925,-2.27246 -9.14644,-11.1532 -3.98075,-16.23736 3.14331,-3.0937 7.71294,-3.66074 11.66102,-1.44702 5.30279,2.97331 6.22874,10.85394 1.78953,15.23044 -1.85693,1.8307 -3.53002,2.50584 -6.42016,2.59069 -1.32715,0.039 -2.69949,-0.0226 -3.04964,-0.13675 z m 4.4936,-4.87353 c 2.51638,-0.95342 3.66988,-4.54945 2.24129,-6.98715 -1.61741,-2.75989 -5.36861,-3.12623 -7.47273,-0.72977 -1.96645,2.23966 -1.5221,5.37436 1.02319,7.21816 1.15512,0.83677 2.80123,1.03187 4.20825,0.49876 z m 9.79241,-4.49158 0.0666,-9.3345 4.37762,0.0275 c 5.01942,0.0316 6.12633,0.30065 7.45332,1.81201 1.15832,1.31926 1.50439,2.34227 1.50158,4.43882 -0.004,3.04455 -1.33418,5.15876 -3.77143,5.99478 -0.4691,0.16092 -1.75498,0.3678 -2.8575,0.45975 l -2.00459,0.16717 v 2.88448 2.88448 h -2.41613 -2.41613 z m 7.4424,-1.19421 c 1.08311,-0.45255 1.47693,-1.33019 1.09216,-2.43392 -0.31893,-0.91489 -1.04478,-1.26137 -2.64247,-1.26137 h -1.12646 v 2.032 2.032 h 0.89716 c 0.49343,0 1.29426,-0.16592 1.77961,-0.36871 z m 8.0516,1.19421 0.0666,-9.3345 5.1435,-0.0688 5.1435,-0.0688 v 2.29126 2.29126 h -2.794 -2.794 v 1.27 1.27 h 2.794 2.794 v 2.159 2.159 h -2.794 -2.794 v 1.524 1.524 h 2.794 2.794 v 2.159 2.159 h -5.21013 -5.21013 z m 12.954,0 0.0666,-9.3345 2.04993,-0.073 2.04993,-0.073 3.34682,5.02604 3.34681,5.02603 7.6e-4,-5.02603 7.7e-4,-5.02603 2.3495,0.073 2.3495,0.073 0.0666,9.3345 0.0666,9.3345 h -2.16139 -2.1614 l -3.23925,-4.86123 -3.23923,-4.86124 -0.069,4.86124 -0.069,4.86123 h -2.41064 -2.41065 z m 18.73563,-2.4765 v -11.811 h 6.35 6.35 v 2.667 2.667 h -3.429 -3.429 v 1.778 1.778 h 3.429 3.429 v 2.794 2.794 h -3.429 -3.429 v 1.905 1.905 h 3.429 3.429 v 2.667 2.667 h -6.35 -6.35 z m 16.256,0 v -11.811 l 4.0005,0.003 4.0005,0.003 2.159,6.97939 c 1.18745,3.83866 2.21018,6.83774 2.27274,6.66462 0.0625,-0.17312 1.05227,-3.28657 2.19937,-6.91877 l 2.08564,-6.604 4.08713,-0.0698 4.08712,-0.0698 v 11.81729 11.81729 h -2.921 -2.921 l -0.0201,-7.1755 -0.02,-7.1755 -0.5968,1.778 c -0.32825,0.9779 -1.12661,3.4925 -1.77414,5.588 -0.64754,2.0955 -1.40797,4.52438 -1.68986,5.3975 l -0.51251,1.5875 H 431.807 c -1.80121,0 -2.14083,-0.067 -2.25146,-0.4445 -0.24069,-0.82118 -4.00602,-12.88327 -4.22215,-13.5255 -0.1262,-0.37499 -0.22191,2.35507 -0.23375,6.6675 l -0.0201,7.30252 h -2.794 -2.794 z m 28.194,0 v -11.811 h 4.01507 4.01508 l 2.13745,6.85228 c 1.1756,3.76875 2.2087,6.76912 2.29577,6.6675 0.0871,-0.10163 0.64237,-1.72783 1.23399,-3.61378 0.59161,-1.88595 1.54301,-4.88632 2.1142,-6.6675 l 1.03855,-3.2385 h 4.02094 4.02095 v 11.811 11.811 h -2.91705 -2.91704 l -0.0675,-7.13743 -0.0675,-7.13743 -2.1949,7.07393 -2.19489,7.07393 -2.13126,0.0726 -2.13126,0.0726 -1.08854,-3.50159 c -0.59871,-1.92586 -1.62373,-5.23641 -2.27785,-7.35677 l -1.1893,-3.85519 -0.0673,7.34769 -0.0673,7.34769 h -2.79017 -2.79016 z M 323.66905,190.69504 c -2.88266,-0.68242 -5.79436,-3.10571 -7.23563,-6.02192 l -0.95483,-1.93197 V 102.08297 21.424794 l 0.8389,-1.778 c 1.34763,-2.856245 3.87846,-5.102 6.9081,-6.129985 1.35191,-0.458714 3.97147,-0.474015 81.153,-0.474015 h 79.756 l 1.4562,0.55634 c 2.97659,1.137201 5.17204,3.132132 6.5158,5.92066 l 0.918,1.905 v 80.658176 80.65818 l -0.95483,1.93197 c -1.15614,2.33929 -3.10105,4.23616 -5.52217,5.38575 l -1.651,0.78393 -80.137,0.039 c -46.00421,0.0224 -80.54314,-0.0572 -81.09054,-0.18675 z m 161.39243,-3.95413 c 1.50945,-0.69777 3.16345,-2.35177 3.86122,-3.86122 l 0.54589,-1.18089 0.0651,-79.29772 0.0651,-79.297715 -0.52509,-1.403414 c -0.60592,-1.619473 -2.1918,-3.381277 -3.83085,-4.25583 l -1.10825,-0.591327 h -79.883 -79.883 l -1.10368,0.589001 c -1.69829,0.90632 -3.20119,2.563016 -3.81616,4.206688 l -0.54116,1.446368 v 78.817109 c 0,85.85751 -0.0997,80.04016 1.40854,82.21649 0.89626,1.2933 2.22903,2.2867 3.7965,2.82976 1.19799,0.41506 5.88047,0.43742 80.51996,0.38464 l 79.248,-0.056 z m -69.63389,-19.29567 c -17.81675,-0.75739 -33.74077,-5.05276 -45.81353,-12.3578 -5.12799,-3.10287 -11.68438,-9.05336 -15.17721,-13.77464 -6.36087,-8.59804 -9.80415,-18.76413 -10.30212,-30.4165 l -0.16012,-3.7465 h 4.76567 c 4.16571,0 4.74696,-0.0487 4.61708,-0.3872 -0.0817,-0.21297 -0.22583,-2.09892 -0.32023,-4.191 l -0.17165,-3.803802 h 7.61515 7.61515 l 0.32357,-2.47313 c 1.49595,-11.43426 9.00771,-21.854549 19.44924,-26.979942 3.28076,-1.610411 6.27263,-2.640833 9.05128,-3.117317 0.95905,-0.164459 1.74372,-0.369806 1.74372,-0.456328 0,-0.44339 -3.2844,-4.547263 -5.12986,-6.409785 -6.61284,-6.673982 -15.5145,-10.668945 -26.41963,-11.856829 -3.51957,-0.383383 -11.40967,-0.327102 -15.53636,0.110827 -5.83685,0.619407 -12.31116,1.869834 -19.84315,3.832436 l -0.508,0.13237 0.508,-0.415638 c 0.63245,-0.517461 3.48945,-1.867591 6.985,-3.300898 1.46685,-0.601464 3.6957,-1.602229 4.953,-2.223922 10.46137,-5.172807 26.20841,-8.841464 42.291,-9.852722 8.02138,-0.504377 19.55641,-0.04947 26.543,1.046773 21.54007,3.379785 37.25056,11.437717 47.23846,24.228659 6.5887,8.437794 10.58407,20.189953 10.84278,31.893446 l 0.0646,2.921 -4.61014,0.06917 -4.61015,0.06917 0.15094,4.058332 0.15094,4.05833 h -11.18593 -11.18593 l -0.17096,1.4605 c -0.9014,7.70076 -4.6477,15.30919 -10.2867,20.8915 -3.7778,3.73982 -8.64802,6.8781 -12.91026,8.31913 l -1.33838,0.4525 1.32159,2.02769 c 6.71509,10.30274 16.39462,16.11331 30.31118,18.19563 3.748,0.56081 14.08836,0.43364 19.05,-0.23428 4.73582,-0.63752 9.26653,-1.51485 14.15273,-2.74054 1.9166,-0.48077 3.6311,-0.86834 3.81,-0.86127 0.50933,0.0201 -3.97595,2.2363 -6.76432,3.34224 -1.38467,0.5492 -3.39173,1.43806 -4.46013,1.97524 -10.17474,5.11576 -25.05876,8.87037 -40.26628,10.1575 -3.40232,0.28796 -13.06146,0.49879 -16.383,0.3576 z"
             style="fill:#cdced0;stroke-width:0.25400001" />
          <path
             inkscape:connector-curvature="0"
             id="path274"
             d="m 341.6973,228.72386 c -2.60051,-0.73083 -5.12976,-3.18562 -6.18619,-6.00406 -0.2767,-0.7382 -0.42999,-1.90762 -0.43285,-3.302 -0.006,-2.75285 0.65778,-4.55374 2.36606,-6.42287 4.55368,-4.98245 12.69537,-3.76342 15.69801,2.35041 0.61822,1.25877 0.69026,1.68438 0.69026,4.07781 0,2.50163 -0.0527,2.77944 -0.82548,4.34913 -1.59042,3.23059 -4.45099,5.0809 -8.06452,5.21638 -1.17136,0.0439 -2.54588,-0.0682 -3.24529,-0.2648 z m 5.15465,-5.02326 c 1.76143,-0.98558 2.62882,-3.24153 2.17548,-5.65805 -0.33896,-1.80683 -2.46553,-3.45075 -4.46388,-3.45075 -1.44167,0 -2.51262,0.51108 -3.60293,1.7194 -1.68329,1.86546 -1.57951,4.49202 0.25483,6.44965 1.62986,1.7394 3.61566,2.07049 5.6365,0.93975 z m 9.39364,-4.1715 v -9.28671 l 4.65656,0.0792 4.65657,0.0792 1.24893,0.76324 c 3.18653,1.94731 3.63312,6.96936 0.87274,9.81415 -1.3412,1.3822 -2.36831,1.73816 -5.0213,1.7402 l -1.8415,0.001 v 3.048 3.048 h -2.286 -2.286 z m 7.30411,-1.14378 c 1.42335,-0.49619 1.73375,-2.59334 0.50236,-3.39412 -0.31211,-0.20296 -1.16755,-0.44774 -1.90097,-0.54394 l -1.3335,-0.1749 v 2.19172 2.19172 h 0.9781 c 0.53795,0 1.32726,-0.12172 1.75401,-0.27048 z m 8.18989,1.15948 v -9.271 h 5.08 5.08 v 2.032 2.032 h -2.794 -2.794 v 1.38841 1.38841 l 2.7305,0.0721 2.7305,0.0721 0.0738,2.0955 0.0738,2.0955 h -2.80427 -2.80427 v 1.524 1.524 h 2.794 2.794 v 2.159 2.159 h -5.08 -5.08 z m 12.7,0 v -9.271 h 2.1617 2.1617 l 3.2993,4.96671 3.2993,4.96671 v -4.96671 -4.96671 h 2.286 2.286 v 9.271 9.271 h -1.99278 -1.99278 l -3.34047,-5.0165 -3.34046,-5.0165 -7.6e-4,5.0165 -7.5e-4,5.0165 h -2.413 -2.413 z m 18.796,-2.54 v -11.811 h 6.35 6.35 v 2.667 2.667 h -3.429 -3.429 v 1.778 1.778 h 3.429 3.429 v 2.667 2.667 h -3.429 -3.429 v 2.032 2.032 h 3.429 3.429 v 2.667 2.667 h -6.35 -6.35 z m 16.256,-0.006 v -11.8179 l 3.96436,0.07 3.96437,0.0699 2.14067,6.84587 c 1.17738,3.76523 2.18629,6.89149 2.24204,6.94724 0.0557,0.0557 0.80368,-2.1105 1.66209,-4.81388 0.8584,-2.70338 1.86098,-5.8582 2.22795,-7.01073 l 0.66723,-2.0955 h 3.88464 3.88465 v 11.81959 11.8196 l -2.7305,-0.0721 -2.7305,-0.0721 -0.127,-7.239 -0.127,-7.239 -2.26465,7.3025 -2.26465,7.3025 -2.05335,-2.3e-4 -2.05335,-2.4e-4 -2.286,-7.36385 -2.286,-7.36385 -0.0673,7.36409 -0.0673,7.36408 h -2.79017 -2.79016 v -11.81745 z m 28.194,0 v -11.8179 l 3.99532,0.07 3.99532,0.0699 2.15572,6.91726 c 1.18564,3.8045 2.23333,6.83345 2.32819,6.731 0.0949,-0.10244 1.12448,-3.24378 2.28804,-6.98076 l 2.11555,-6.7945 h 3.87993 3.87993 v 11.81959 11.8196 l -2.7305,-0.0721 -2.7305,-0.0721 -0.0561,-7.08343 c -0.0308,-3.89588 -0.089,-7.11628 -0.12911,-7.15644 -0.0402,-0.0402 -0.73682,2.06153 -1.54814,4.67043 -0.81132,2.60889 -1.82717,5.86222 -2.25744,7.22962 l -0.78232,2.48617 -2.04865,-0.0732 -2.04865,-0.0732 -2.2958,-7.36091 -2.29579,-7.36091 -0.0673,7.42441 -0.0673,7.42441 h -2.79017 -2.79016 V 216.99835 Z M 323.89218,190.68863 c -3.58587,-0.84564 -6.93821,-3.98244 -8.02846,-7.51226 -0.50888,-1.64756 -0.51213,-2.16214 -0.51213,-81.10657 0,-78.410161 0.007,-79.469733 0.50192,-81.073525 0.9443,-3.057291 3.06525,-5.45923 6.10208,-6.910489 l 1.651,-0.788992 h 80.65034 80.65034 l 1.66905,0.821668 c 3.07766,1.515131 5.13206,3.857551 6.09405,6.948435 0.46797,1.503591 0.48122,3.733516 0.48122,80.998773 0,79.22682 -0.002,79.45738 -0.51761,81.12845 -0.93572,3.02951 -3.55951,5.77475 -6.84839,7.16539 -1.1147,0.47133 -3.12065,0.48426 -81.026,0.52228 -47.5062,0.0232 -80.28198,-0.0551 -80.86741,-0.19316 z m 161.31485,-3.97489 c 1.73219,-0.9256 2.89496,-2.11265 3.66608,-3.74263 l 0.72208,-1.52631 2e-4,-79.26625 c 2.3e-4,-90.003699 0.25507,-80.662366 -2.26949,-83.189584 -1.01397,-1.015048 -1.81588,-1.558148 -2.81282,-1.905001 -1.36102,-0.473525 -3.28751,-0.485171 -80.26149,-0.485171 -76.97398,0 -78.90047,0.01165 -80.26149,0.485171 -0.99693,0.346853 -1.79885,0.889953 -2.81282,1.905001 -2.525,2.527661 -2.27161,-6.818003 -2.2555,83.189584 0.0134,75.00463 0.0382,79.32537 0.46044,80.36576 0.57927,1.42723 1.59941,2.69001 2.8322,3.50584 2.17288,1.43794 -3.6129,1.3474 82.41817,1.28984 l 79.502,-0.0532 z m -45.64944,-26.622 c -0.34925,-0.0597 -1.6637,-0.23268 -2.921,-0.38437 -15.26186,-1.84132 -27.28899,-10.29238 -33.40784,-23.47457 -3.56542,-7.68119 -5.82312,-18.17608 -5.83299,-27.1145 l -0.002,-1.9685 H 375.45103 353.5083 l -0.14485,-0.8255 c -0.0797,-0.45403 -0.2228,-2.33998 -0.31808,-4.191 l -0.17324,-3.365502 h 7.63754 7.63754 l 0.17244,-1.4605 c 0.28789,-2.438299 0.85275,-4.8704 1.76276,-7.589934 3.9584,-11.829487 14.43069,-20.998994 26.7659,-23.436145 l 2.12155,-0.419168 -1.52862,-2.061652 C 387.25236,50.058886 370.44601,44.712552 347.7443,47.991161 c -3.952,0.570753 -9.21056,1.637464 -13.53321,2.745245 -1.57163,0.402768 -2.8575,0.679602 -2.8575,0.61519 0,-0.213365 5.67398,-2.804673 8.128,-3.712062 4.30025,-1.590048 13.86909,-3.589567 21.0161,-4.391559 5.06405,-0.568254 12.9107,-0.566346 17.17052,0.0042 14.35643,1.922775 24.58381,8.171282 31.43188,19.203577 4.72052,7.604803 7.62003,18.1756 8.02684,29.263567 l 0.1561,4.2545 h 21.91729 c 12.87992,0 21.97615,0.09523 22.06003,0.23096 0.0785,0.127028 0.2174,1.955828 0.30865,4.064001 l 0.1659,3.83305 h -11.20414 -11.20415 l -0.14505,0.9525 c -0.82676,5.42923 -1.79238,8.57301 -3.84904,12.53138 -3.98683,7.67328 -11.28739,14.1746 -19.09181,17.00167 -1.14727,0.41559 -1.56055,0.68205 -1.46085,0.94186 0.43303,1.12846 3.61721,5.30153 5.74865,7.53398 3.81094,3.99153 7.65416,6.69304 12.64052,8.88542 11.43023,5.02558 26.98346,5.30096 45.40751,0.80396 2.49813,-0.60975 4.58218,-1.06891 4.63123,-1.02035 0.12792,0.12662 -4.26294,2.20067 -6.90755,3.26282 -3.89639,1.5649 -12.73405,3.55754 -20.48663,4.61915 -2.75834,0.37772 -14.77517,0.73073 -16.256,0.47755 z"
             style="fill:#8f8f90;stroke-width:0.25400001" />
          <path
             inkscape:connector-curvature="0"
             id="path272"
             d="m 342.00364,228.72249 c -2.52594,-0.68107 -4.64611,-2.4607 -6.00565,-5.04107 -0.65502,-1.24321 -0.7074,-1.55888 -0.7074,-4.26362 0,-2.87497 0.0143,-2.94701 0.91043,-4.572 1.09172,-1.97976 2.86993,-3.5232 4.97128,-4.31494 1.99856,-0.753 5.44257,-0.64003 7.27042,0.2385 1.901,0.9137 3.61448,2.61832 4.55661,4.53305 0.77916,1.58355 0.83216,1.85869 0.81626,4.23795 -0.0186,2.78906 -0.35462,3.85667 -1.85901,5.90698 -2.05977,2.80726 -6.39609,4.23418 -9.95294,3.27515 z m 4.49244,-4.71062 c 2.04311,-0.92782 3.25593,-3.57931 2.65476,-5.8039 -0.32711,-1.21043 -1.50366,-2.69034 -2.58234,-3.24814 -1.02389,-0.52947 -3.10753,-0.46477 -4.27902,0.13289 -3.48019,1.77546 -3.35357,6.92928 0.21656,8.81408 1.3465,0.71087 2.58425,0.74347 3.99004,0.10507 z m 9.74951,-4.45718 v -9.28089 h 4.0179 c 2.81353,0 4.39855,0.11304 5.28778,0.37712 5.32535,1.58146 5.11153,10.31342 -0.28868,11.78852 -0.5588,0.15264 -1.7839,0.27817 -2.72244,0.27895 l -1.70644,0.002 -0.0716,2.9845 -0.0716,2.9845 -2.2225,0.0734 -2.2225,0.0734 v -9.28089 z m 8.16578,-1.64447 c 0.51634,-0.63765 0.61415,-1.81287 0.21323,-2.562 -0.28281,-0.52844 -1.69632,-1.00679 -2.98151,-1.009 l -0.8255,-0.001 v 2.18953 2.18953 l 1.56178,-0.11297 c 1.23811,-0.0896 1.65923,-0.23331 2.032,-0.69367 z m 7.32822,1.63458 v -9.271 h 4.953 4.953 v 2.032 2.032 h -2.667 -2.667 v 1.524 1.524 h 2.667 2.667 v 2.032 2.032 h -2.667 -2.667 v 1.524 1.524 h 2.667 2.667 v 2.159 2.159 h -4.953 -4.953 z m 12.954,0 v -9.271 h 1.99278 1.99278 l 3.34047,5.0165 3.34046,5.0165 7.6e-4,-5.0165 7.5e-4,-5.0165 h 2.286 2.286 v 9.28169 9.28168 l -1.9685,-0.0742 -1.9685,-0.0742 -3.429,-5.08 -3.429,-5.08 -0.0688,5.1435 -0.0688,5.1435 h -2.15374 -2.15374 z m 18.542,-2.54 v -11.811 h 6.35 6.35 v 2.667 2.667 h -3.429 -3.429 v 1.778 1.778 h 3.429 3.429 v 2.667 2.667 h -3.429 -3.429 v 2.032 2.032 h 3.429 3.429 v 2.667 2.667 h -6.35 -6.35 z m 16.256,-0.006 v -11.8179 l 3.96436,0.07 3.96437,0.0699 2.14067,6.84587 c 1.17738,3.76523 2.18629,6.89149 2.24204,6.94724 0.0557,0.0557 0.80368,-2.1105 1.66209,-4.81388 0.8584,-2.70338 1.86098,-5.8582 2.22795,-7.01073 l 0.66723,-2.0955 h 3.88464 3.88465 v 11.81959 11.8196 l -2.7305,-0.0721 -2.7305,-0.0721 -0.0775,-7.366 -0.0775,-7.366 -0.6406,2.032 c -0.95588,3.03208 -2.78873,8.89428 -3.43467,10.9855 l -0.5688,1.8415 -2.04546,-2.3e-4 -2.04545,-2.4e-4 -2.286,-7.36385 -2.286,-7.36385 -0.0673,7.36409 -0.0673,7.36408 h -2.79017 -2.79016 v -11.81745 z m 28.194,0 v -11.8179 l 3.99799,0.07 3.998,0.0699 1.01932,3.302 c 2.7179,8.80434 3.29261,10.52566 3.45558,10.34992 0.0969,-0.10445 1.12814,-3.24744 2.2917,-6.98442 l 2.11555,-6.7945 h 3.87993 3.87993 v 11.81959 11.8196 l -2.7305,-0.0721 -2.7305,-0.0721 -0.0561,-7.08343 c -0.0308,-3.89588 -0.089,-7.11628 -0.12911,-7.15644 -0.0402,-0.0402 -0.73682,2.06153 -1.54814,4.67043 -0.81132,2.60889 -1.82717,5.86222 -2.25744,7.22962 l -0.78232,2.48617 -2.04773,-0.0732 -2.04774,-0.0732 -1.2202,-3.937 c -0.6711,-2.16535 -1.72306,-5.48005 -2.33769,-7.366 l -1.1175,-3.429 -0.0225,7.4295 -0.0225,7.4295 h -2.794 -2.794 V 216.99835 Z M 323.76017,190.56886 c -3.95622,-1.06682 -6.98012,-4.12758 -8.01922,-8.11694 -0.34581,-1.32763 -0.38902,-10.33225 -0.38635,-80.49899 0.002,-65.15369 0.0626,-79.226783 0.34277,-80.274136 1.09813,-4.1048 4.34884,-7.324424 8.31934,-8.239787 1.54282,-0.355683 158.92694,-0.355683 160.46976,0 4.09708,0.944545 7.5015,4.440805 8.39433,8.620787 0.22586,1.05741 0.27961,20.691934 0.22109,80.772006 l -0.0773,79.375 -0.58884,1.45808 c -1.19165,2.95073 -3.63835,5.39743 -6.58908,6.58908 l -1.45808,0.58884 -79.629,0.0478 c -68.99175,0.0414 -79.81207,-0.002 -80.99942,-0.32175 z m 160.81745,-3.49593 c 1.68065,-0.65255 3.58167,-2.44466 4.43368,-4.17967 l 0.71129,-1.44846 v -79.375 -79.375006 l -0.66278,-1.397 c -0.85742,-1.807265 -2.25093,-3.206517 -4.01931,-4.035881 l -1.41391,-0.663119 h -79.375 -79.375 l -1.397,0.674689 c -1.82533,0.881555 -3.21937,2.266676 -4.03813,4.012308 l -0.66087,1.409003 v 79.375006 79.375 l 0.54887,1.18762 c 1.12757,2.43981 3.40223,4.2571 5.96159,4.76288 0.61049,0.12065 36.41111,0.20268 79.59554,0.18239 75.58835,-0.0355 78.53049,-0.0542 79.69103,-0.50476 z m -43.87703,-26.98579 c -10.32374,-1.02978 -16.9302,-3.10132 -23.34706,-7.32073 -7.03951,-4.62884 -12.66455,-12.0242 -16.00171,-21.03777 -0.87812,-2.37178 -2.32148,-7.94523 -2.9338,-11.32868 -0.43082,-2.38057 -1.01325,-8.75485 -1.01922,-11.15466 l -0.005,-2.0955 h -21.94933 -21.94933 l -0.13939,-1.8415 c -0.0767,-1.01283 -0.20139,-2.84163 -0.27715,-4.064 l -0.13776,-2.222502 h 7.59654 7.59654 l 0.17664,-1.5875 c 0.42373,-3.808286 1.8828,-8.8055 3.52055,-12.057635 3.31486,-6.582423 9.1308,-12.454342 15.65483,-15.805511 2.85656,-1.46731 7.03871,-2.91829 9.65832,-3.35091 1.67115,-0.275984 1.74003,-0.314689 1.46922,-0.825503 -0.74188,-1.399337 -3.4255,-4.580832 -5.72169,-6.783182 -12.32947,-11.825613 -31.40598,-14.620929 -56.96448,-8.347109 -2.16452,0.531323 -3.97397,0.927553 -4.02101,0.880514 -0.13106,-0.131064 4.13363,-2.120122 6.57424,-3.066242 4.02454,-1.560129 12.99351,-3.573818 20.30526,-4.558876 4.11643,-0.554576 13.13714,-0.770288 16.891,-0.403911 8.51971,0.83152 15.84391,3.272104 21.844,7.278914 11.87266,7.92845 18.87668,22.695813 19.59981,41.324451 l 0.16515,4.2545 h 21.90348 21.90349 l 0.14029,0.5715 c 0.0772,0.314325 0.22048,2.143125 0.31848,4.064002 l 0.17819,3.4925 h -11.20144 -11.20143 l -0.14505,0.9525 c -0.82676,5.42923 -1.79238,8.57301 -3.84904,12.53138 -3.4882,6.7136 -9.60661,12.6511 -16.25067,15.77017 -1.24149,0.58282 -2.70856,1.19369 -3.26015,1.35748 -0.55159,0.16379 -1.04205,0.4153 -1.08992,0.55891 -0.0479,0.1436 0.59758,1.27573 1.43434,2.51583 11.59367,17.18224 32.46749,22.23536 62.22968,15.06452 2.29196,-0.55222 4.20771,-0.96353 4.25723,-0.91402 0.1201,0.1201 -4.38311,2.22496 -6.77344,3.16599 -3.66896,1.4444 -12.87356,3.45934 -20.02609,4.38382 -3.75297,0.48507 -12.73461,0.83998 -15.15291,0.59876 z"
             style="fill:#4896c5;stroke-width:0.25400001" />
          <path
             inkscape:connector-curvature="0"
             id="path270"
             d="m 342.00364,228.72249 c -2.52594,-0.68107 -4.64611,-2.4607 -6.00565,-5.04107 -0.65502,-1.24321 -0.7074,-1.55888 -0.7074,-4.26362 0,-2.87497 0.0143,-2.94701 0.91043,-4.572 1.09172,-1.97976 2.86993,-3.5232 4.97128,-4.31494 1.99856,-0.753 5.44257,-0.64003 7.27042,0.2385 1.901,0.9137 3.61448,2.61832 4.55661,4.53305 0.77916,1.58355 0.83216,1.85869 0.81626,4.23795 -0.0186,2.78906 -0.35462,3.85667 -1.85901,5.90698 -2.05977,2.80726 -6.39609,4.23418 -9.95294,3.27515 z m 4.49244,-4.71062 c 2.04311,-0.92782 3.25593,-3.57931 2.65476,-5.8039 -0.32711,-1.21043 -1.50366,-2.69034 -2.58234,-3.24814 -1.02389,-0.52947 -3.10753,-0.46477 -4.27902,0.13289 -3.48019,1.77546 -3.35357,6.92928 0.21656,8.81408 1.3465,0.71087 2.58425,0.74347 3.99004,0.10507 z m 9.74951,-4.45718 v -9.28089 h 4.0179 c 2.81353,0 4.39855,0.11304 5.28778,0.37712 5.32535,1.58146 5.11153,10.31342 -0.28868,11.78852 -0.5588,0.15264 -1.7839,0.27817 -2.72244,0.27895 l -1.70644,0.002 -0.0716,2.9845 -0.0716,2.9845 -2.2225,0.0734 -2.2225,0.0734 v -9.28089 z m 8.16578,-1.64447 c 0.51634,-0.63765 0.61415,-1.81287 0.21323,-2.562 -0.28281,-0.52844 -1.69632,-1.00679 -2.98151,-1.009 l -0.8255,-0.001 v 2.18953 2.18953 l 1.56178,-0.11297 c 1.23811,-0.0896 1.65923,-0.23331 2.032,-0.69367 z m 7.32822,1.63458 v -9.271 h 4.953 4.953 v 2.032 2.032 h -2.667 -2.667 v 1.524 1.524 h 2.667 2.667 v 2.032 2.032 h -2.667 -2.667 v 1.524 1.524 h 2.667 2.667 v 2.159 2.159 h -4.953 -4.953 z m 12.954,0 v -9.271 h 1.99278 1.99278 l 3.34047,5.0165 3.34046,5.0165 7.6e-4,-5.0165 7.5e-4,-5.0165 h 2.286 2.286 v 9.28169 9.28168 l -1.9685,-0.0742 -1.9685,-0.0742 -3.429,-5.08 -3.429,-5.08 -0.0688,5.1435 -0.0688,5.1435 h -2.15374 -2.15374 z m 18.542,-2.54 v -11.557 h 6.35 6.35 v 2.54 2.54 h -3.556 -3.556 v 1.905 1.905 h 3.556 3.556 v 2.54 2.54 h -3.556 -3.556 v 2.032 2.032 h 3.556 3.556 v 2.54 2.54 h -6.35 -6.35 z m 16.256,0 v -11.557 h 3.91971 3.91971 l 1.05112,3.3655 c 2.56349,8.20788 3.36993,10.6207 3.50471,10.48592 0.13081,-0.13081 1.26939,-3.63439 3.61406,-11.12092 l 0.85514,-2.7305 h 3.88678 3.88677 v 11.557 11.557 h -2.66322 -2.66322 l -0.0673,-7.5565 -0.0673,-7.5565 -0.92591,2.794 c -1.2442,3.75447 -3.44658,10.75187 -3.66055,11.63029 l -0.17252,0.70829 -2.06323,-0.0733 -2.06322,-0.0733 -1.06544,-3.429 c -0.586,-1.88595 -1.60869,-5.17207 -2.27265,-7.3025 -0.66397,-2.13042 -1.29997,-3.8735 -1.41334,-3.8735 -0.11338,0 -0.20614,3.3147 -0.20614,7.366 v 7.366 h -2.667 -2.667 z m 28.448,-0.007 v -11.56361 l 3.84843,0.0701 3.84844,0.0701 0.43945,1.397 c 0.24169,0.76835 0.91795,2.94005 1.5028,4.826 2.30298,7.42642 2.45525,7.81855 2.76165,7.112 0.39491,-0.91062 4.10923,-12.81091 4.10923,-13.16553 0,-0.21319 1.1058,-0.29646 3.937,-0.29646 h 3.937 v 11.557 11.557 h -2.667 -2.667 l -0.008,-7.5565 c -0.004,-4.32878 -0.10071,-7.39375 -0.22542,-7.1755 -0.11973,0.20955 -1.2237,3.61425 -2.45327,7.566 l -2.23559,7.185 -2.02088,-0.073 -2.02088,-0.073 -2.31262,-7.39726 -2.31262,-7.39726 -0.0673,7.46076 -0.0673,7.46076 h -2.66322 -2.66322 V 216.99819 Z M 323.76017,190.56886 c -3.95622,-1.06682 -6.98012,-4.12758 -8.01922,-8.11694 -0.34581,-1.32763 -0.38902,-10.33225 -0.38635,-80.49899 0.002,-65.15369 0.0626,-79.226783 0.34277,-80.274136 1.09813,-4.1048 4.34884,-7.324424 8.31934,-8.239787 1.54282,-0.355683 158.92694,-0.355683 160.46976,0 4.09708,0.944545 7.5015,4.440805 8.39433,8.620787 0.22586,1.05741 0.27961,20.691934 0.22109,80.772006 l -0.0773,79.375 -0.58884,1.45808 c -1.19165,2.95073 -3.63835,5.39743 -6.58908,6.58908 l -1.45808,0.58884 -79.629,0.0478 c -68.99175,0.0414 -79.81207,-0.002 -80.99942,-0.32175 z m 160.81745,-3.49593 c 1.68065,-0.65255 3.58167,-2.44466 4.43368,-4.17967 l 0.71129,-1.44846 v -79.375 -79.375006 l -0.66278,-1.397 c -0.85742,-1.807265 -2.25093,-3.206517 -4.01931,-4.035881 l -1.41391,-0.663119 h -79.375 -79.375 l -1.397,0.674689 c -1.82533,0.881555 -3.21937,2.266676 -4.03813,4.012308 l -0.66087,1.409003 v 79.375006 79.375 l 0.54887,1.18762 c 1.12757,2.43981 3.40223,4.2571 5.96159,4.76288 0.61049,0.12065 36.41111,0.20268 79.59554,0.18239 75.58835,-0.0355 78.53049,-0.0542 79.69103,-0.50476 z m -43.87703,-26.98579 c -8.29737,-0.82765 -13.74383,-2.21318 -19.0178,-4.83793 -10.16884,-5.06084 -17.00943,-13.49364 -20.95349,-25.83063 -1.76196,-5.5114 -3.0769,-13.38125 -3.0842,-18.45878 -0.002,-1.18745 -0.077,-2.60628 -0.16727,-3.15295 l -0.16416,-0.99395 -21.9091,0.17128 -21.90911,0.17127 -0.13966,-1.84432 c -0.0768,-1.01438 -0.20152,-2.84278 -0.27713,-4.06311 l -0.13747,-2.21877 7.68469,-0.06723 7.6847,-0.06723 0.18558,-1.86088 c 1.12657,-11.296681 8.82155,-22.227958 19.39295,-27.54908 2.77029,-1.39443 7.10463,-2.832093 10.07849,-3.34295 0.89008,-0.152901 0.93485,-0.202106 0.65827,-0.723575 -0.75422,-1.422073 -3.42273,-4.589651 -5.7343,-6.806756 C 380.56211,46.785936 361.4856,43.99062 335.9271,50.26444 c -2.16452,0.531323 -3.97397,0.927553 -4.02101,0.880514 -0.13106,-0.131064 4.13363,-2.120122 6.57424,-3.066242 4.02454,-1.560129 12.99351,-3.573818 20.30526,-4.558876 4.11643,-0.554576 13.13714,-0.770288 16.891,-0.403911 17.06895,1.665923 29.37514,9.887266 35.6703,23.830111 3.46164,7.667006 5.05964,14.484615 5.65784,24.138254 l 0.30298,4.8895 h 21.8924 21.89241 l 0.14029,0.5715 c 0.0772,0.314325 0.22048,2.143125 0.31848,4.064 l 0.17819,3.4925 h -11.33995 -11.33994 l -4e-5,0.8255 c -6e-5,1.05408 -0.6058,4.15849 -1.22663,6.2865 -2.65019,9.0839 -9.00771,16.83343 -17.56933,21.41623 -1.18745,0.63561 -2.98367,1.46083 -3.99159,1.83383 l -1.83259,0.67819 0.90625,1.43438 c 11.46194,18.14146 32.63579,23.60654 63.06014,16.27616 2.29196,-0.55222 4.20771,-0.96353 4.25723,-0.91402 0.1201,0.1201 -4.38311,2.22496 -6.77344,3.16599 -3.66896,1.4444 -12.87356,3.45934 -20.02609,4.38382 -3.75297,0.48507 -12.73461,0.83998 -15.15291,0.59876 z"
             style="fill:#0072c3;stroke-width:0.25400001" />
          <path
             inkscape:connector-curvature="0"
             id="path268"
             d="m 342.00364,228.72249 c -2.52594,-0.68107 -4.64611,-2.4607 -6.00565,-5.04107 -0.65502,-1.24321 -0.7074,-1.55888 -0.7074,-4.26362 0,-2.87497 0.0143,-2.94701 0.91043,-4.572 1.09172,-1.97976 2.86993,-3.5232 4.97128,-4.31494 1.99856,-0.753 5.44257,-0.64003 7.27042,0.2385 1.901,0.9137 3.61448,2.61832 4.55661,4.53305 0.77916,1.58355 0.83216,1.85869 0.81626,4.23795 -0.0186,2.78906 -0.35462,3.85667 -1.85901,5.90698 -2.05977,2.80726 -6.39609,4.23418 -9.95294,3.27515 z m 4.49244,-4.71062 c 2.04311,-0.92782 3.25593,-3.57931 2.65476,-5.8039 -0.32711,-1.21043 -1.50366,-2.69034 -2.58234,-3.24814 -1.02389,-0.52947 -3.10753,-0.46477 -4.27902,0.13289 -3.48019,1.77546 -3.35357,6.92928 0.21656,8.81408 1.3465,0.71087 2.58425,0.74347 3.99004,0.10507 z m 9.74951,-4.45718 v -9.28089 h 4.0179 c 2.81353,0 4.39855,0.11304 5.28778,0.37712 5.32535,1.58146 5.11153,10.31342 -0.28868,11.78852 -0.5588,0.15264 -1.7839,0.27817 -2.72244,0.27895 l -1.70644,0.002 -0.0716,2.9845 -0.0716,2.9845 -2.2225,0.0734 -2.2225,0.0734 v -9.28089 z m 8.16578,-1.64447 c 0.51634,-0.63765 0.61415,-1.81287 0.21323,-2.562 -0.28281,-0.52844 -1.69632,-1.00679 -2.98151,-1.009 l -0.8255,-0.001 v 2.18953 2.18953 l 1.56178,-0.11297 c 1.23811,-0.0896 1.65923,-0.23331 2.032,-0.69367 z m 7.32822,1.63458 v -9.271 h 4.953 4.953 v 2.032 2.032 h -2.667 -2.667 v 1.524 1.524 h 2.667 2.667 v 2.032 2.032 h -2.667 -2.667 v 1.524 1.524 h 2.667 2.667 v 2.159 2.159 h -4.953 -4.953 z m 12.954,0 v -9.271 h 1.99278 1.99278 l 3.34047,5.0165 3.34046,5.0165 7.6e-4,-5.0165 7.5e-4,-5.0165 h 2.286 2.286 v 9.28169 9.28168 l -1.9685,-0.0742 -1.9685,-0.0742 -3.429,-5.08 -3.429,-5.08 -0.0688,5.1435 -0.0688,5.1435 h -2.15374 -2.15374 z m 18.542,-2.49663 v -11.51363 l 4.1275,0.0871 c 2.27012,0.0479 5.09257,0.12334 6.27209,0.16768 1.17952,0.0443 1.92247,-0.006 1.651,-0.11258 -0.45554,-0.1783 -0.44954,-0.19457 0.0779,-0.21104 0.55576,-0.0174 0.5715,0.0521 0.5715,2.52214 v 2.54 h -3.40783 c -2.48861,0 -3.4424,-0.0856 -3.53595,-0.3175 -0.0705,-0.17462 -0.13714,0.68263 -0.14817,1.905 l -0.02,2.2225 h 3.556 3.556 v 2.54 2.54 h -3.556 -3.556 v 2.3171 c 0,1.82411 0.0675,2.26135 0.3175,2.05506 0.17685,-0.14596 1.75214,-0.27516 3.556,-0.29164 l 3.2385,-0.0296 v 2.53406 2.53405 l -5.9055,-0.051 -5.9055,-0.051 -0.0661,-11.22037 c -0.0621,-10.52953 -0.0386,-11.22755 0.381,-11.33703 0.30644,-0.08 0.24732,-0.12598 -0.18787,-0.14626 l -0.635,-0.0296 0.127,11.43025 c 0.10047,9.04265 0.0607,11.43024 -0.1905,11.43013 -0.24933,-1e-4 -0.3175,-2.47225 -0.3175,-11.51376 z m 12.03914,6.97075 c 0.26517,-0.10404 -0.59208,-0.14676 -1.905,-0.0949 -3.2335,0.12763 -3.64757,0.25836 -0.86314,0.27251 1.2573,0.006 2.50296,-0.0735 2.76814,-0.17757 z m -4.80014,-5.10912 c 0.0863,-0.1397 0.0359,-0.254 -0.11201,-0.254 -0.14794,0 -0.26899,0.1143 -0.26899,0.254 0,0.1397 0.0504,0.254 0.11201,0.254 0.0616,0 0.18265,-0.1143 0.26899,-0.254 z m 5.13821,-2.94746 c -0.0844,-0.0844 -0.30348,-0.0934 -0.48684,-0.02 -0.20262,0.0811 -0.14243,0.14127 0.15346,0.15346 0.26776,0.011 0.41778,-0.049 0.33338,-0.13341 z m -6.02721,-0.35454 c 0,-0.1397 -0.12105,-0.254 -0.26899,-0.254 -0.14795,0 -0.19835,0.1143 -0.11201,0.254 0.0863,0.1397 0.20739,0.254 0.26899,0.254 0.0616,0 0.11201,-0.1143 0.11201,-0.254 z m 4.3815,-0.18598 c -0.59373,-0.0535 -1.56528,-0.0535 -2.159,0 -0.59373,0.0535 -0.10795,0.0972 1.0795,0.0972 1.18745,0 1.67322,-0.0437 1.0795,-0.0972 z m 1.7145,-0.57602 c 0,-0.1397 -0.1782,-0.254 -0.39599,-0.254 -0.2178,0 -0.32535,0.1143 -0.23901,0.254 0.0863,0.1397 0.26454,0.254 0.39599,0.254 0.13146,0 0.23901,-0.1143 0.23901,-0.254 z m 3.81,2.21371 v -11.5023 l 3.93281,0.009 3.93281,0.009 0.23894,0.68118 c 0.13142,0.37465 0.18054,0.94615 0.10915,1.27 -0.0917,0.41591 -0.0593,0.48957 0.11041,0.25083 0.17969,-0.25286 0.27672,-0.15689 0.38525,0.381 0.0798,0.39545 0.22099,0.94759 0.3138,1.22699 0.13453,0.40497 0.1145,0.43113 -0.0987,0.12898 -0.20727,-0.29371 -0.24777,-0.20797 -0.17992,0.381 0.0481,0.41801 0.10058,0.96005 0.11651,1.20452 0.0159,0.24448 0.11468,0.43096 0.21946,0.41442 0.51542,-0.0814 0.84263,0.0615 0.7959,0.34758 -0.0285,0.17463 0.0808,0.63927 0.24287,1.03254 0.35693,0.86593 0.37702,1.20233 0.0407,0.68196 -0.21042,-0.3256 -0.24679,-0.31637 -0.25011,0.0635 -0.002,0.24448 0.14947,0.4445 0.3369,0.4445 0.29677,0 0.61623,0.78233 1.08904,2.667 0.10383,0.41388 0.078,0.43741 -0.1393,0.127 -0.22126,-0.31602 -0.26742,-0.28608 -0.27064,0.17551 -0.002,0.30608 0.11041,0.62715 0.25011,0.71349 0.1397,0.0863 0.254,0.0169 0.254,-0.15434 0,-0.49288 0.24879,-0.11448 0.49951,0.75974 0.14196,0.49498 0.13896,0.74524 -0.008,0.65451 -0.13072,-0.0808 -0.23767,-0.0175 -0.23767,0.14073 0,0.15818 0.18423,0.25065 0.4094,0.20548 0.29425,-0.059 0.9849,-1.9039 2.45547,-6.55912 1.12534,-3.56235 2.14763,-6.51723 2.27177,-6.56639 0.12413,-0.0492 0.34803,-0.22061 0.49753,-0.381 0.14951,-0.16039 0.80036,-0.26495 1.44633,-0.23236 3.38803,0.1709 5.53925,0.17422 5.27802,0.008 -0.18953,-0.12049 -0.13604,-0.18799 0.15098,-0.1905 0.41688,-0.004 0.4445,0.71488 0.4445,11.56535 v 11.56924 l -2.667,-0.0426 -2.667,-0.0426 v -7.58964 -7.58964 l -0.508,0.508 c -0.2794,0.2794 -0.50625,0.65088 -0.50411,0.8255 0.003,0.21487 0.0901,0.19434 0.27064,-0.0635 0.20377,-0.29106 0.22574,-0.23109 0.0931,0.254 -0.0955,0.34925 -0.34281,0.82782 -0.54952,1.0635 -0.20671,0.23567 -0.29403,0.56086 -0.19404,0.72264 0.1,0.16179 -0.0628,0.62493 -0.36166,1.02922 -0.38187,0.5165 -0.49888,0.94358 -0.39353,1.43635 0.13657,0.63884 0.10994,0.62431 -0.29901,-0.16307 -0.54877,-1.05661 -0.7597,-0.66151 -0.27722,0.51929 0.29208,0.71484 0.29388,1.03499 0.0111,1.97575 -0.35731,1.18883 -0.7725,1.86248 -0.48216,0.78232 0.14368,-0.53456 0.12614,-0.56388 -0.11094,-0.18537 -0.15489,0.24729 -0.21717,0.65268 -0.1384,0.90086 0.0788,0.24818 -0.13435,1.246 -0.4736,2.21738 -0.33926,0.97137 -0.62533,1.62326 -0.63573,1.44863 -0.0407,-0.68297 -0.47962,-0.26823 -0.64411,0.6086 -0.12168,0.64862 -0.0731,0.98991 0.16223,1.13911 0.20187,0.12799 -0.29768,0.21457 -1.25153,0.2169 -1.10069,0.003 -1.58869,-0.0935 -1.59139,-0.31361 -0.003,-0.22695 -0.0679,-0.21639 -0.22836,0.037 -0.12346,0.19498 -0.38243,0.2939 -0.57549,0.21982 -0.5302,-0.20346 -1.32345,-2.94606 -1.26809,-4.38433 0.0498,-1.29259 -0.27117,-2.19367 -0.64086,-1.79937 -0.11237,0.11985 -0.0614,0.26894 0.11319,0.33131 0.17463,0.0624 0.30724,0.47535 0.29469,0.91773 -0.0164,0.57911 -0.26302,0.0648 -0.8807,-1.83685 -0.47184,-1.45266 -0.79709,-2.73956 -0.72279,-2.85978 0.19306,-0.31238 -0.14723,-1.26278 -0.39689,-1.10848 -0.11474,0.0709 -0.28191,-0.16309 -0.37149,-0.51999 -0.12327,-0.49116 -0.0218,-0.76657 0.41741,-1.1328 0.31915,-0.26613 0.4374,-0.48767 0.26277,-0.49232 -0.17461,-0.005 -0.31748,0.10585 -0.31748,0.24555 0,0.1397 -0.16862,0.254 -0.37471,0.254 -0.30036,0 -0.32396,-0.13351 -0.11891,-0.67281 0.22426,-0.58987 0.20783,-0.63301 -0.13329,-0.3499 -0.23199,0.19254 -0.38909,0.21619 -0.38909,0.0586 0,-0.14538 -0.0679,-0.4737 -0.15096,-0.7296 -0.12555,-0.38696 -0.10483,-0.40114 0.12311,-0.0843 0.15074,0.20955 0.27582,0.26099 0.27796,0.1143 0.005,-0.31268 -0.51571,-0.8763 -0.80891,-0.8763 -0.11176,0 -0.2032,3.3763 -0.2032,7.50289 v 7.50289 l -2.2225,-0.0734 -2.2225,-0.0734 -0.0661,-11.22037 c -0.0621,-10.52953 -0.0386,-11.22755 0.381,-11.33703 0.30644,-0.08 0.24732,-0.12598 -0.18787,-0.14626 l -0.635,-0.0296 0.127,11.43025 c 0.10047,9.04265 0.0607,11.43024 -0.1905,11.43013 -0.24932,-1e-4 -0.3175,-2.46999 -0.3175,-11.50242 z m 3.74592,0.51679 c -0.0429,-1.99072 -0.078,-0.36195 -0.078,3.6195 0,3.98145 0.0351,5.61023 0.078,3.6195 0.0429,-1.99072 0.0429,-5.24827 0,-7.239 z m 7.45043,9.017 c -0.21122,-0.36263 -0.2589,-0.28077 -0.2589,0.4445 0,0.72528 0.0477,0.80714 0.2589,0.4445 0.17586,-0.30194 0.17586,-0.58706 0,-0.889 z m -0.78235,0.1905 c 0,-0.2794 -0.1036,-0.508 -0.23022,-0.508 -0.12662,0 -0.17044,0.2286 -0.0974,0.508 0.0731,0.2794 0.17667,0.508 0.23022,0.508 0.0536,0 0.0974,-0.2286 0.0974,-0.508 z m 4.826,-2.159 c 0,-0.20955 -0.11071,-0.381 -0.24603,-0.381 -0.13531,0 -0.18024,0.17145 -0.0998,0.381 0.0804,0.20955 0.19112,0.381 0.24603,0.381 0.0549,0 0.0998,-0.17145 0.0998,-0.381 z m -6.82699,-4.10845 c -0.22138,-0.38068 -0.27094,-0.39166 -0.27729,-0.0614 -0.008,0.42776 0.25888,0.8129 0.4389,0.63288 0.0594,-0.0594 -0.0134,-0.31654 -0.16161,-0.5715 z m 7.97607,-0.3174 c -0.1701,-0.53591 -0.64108,-0.73658 -0.64108,-0.27315 0,0.1397 0.1143,0.254 0.254,0.254 0.1397,0 0.254,0.1905 0.254,0.42334 0,0.23283 0.0676,0.35575 0.15019,0.27314 0.0826,-0.0826 0.0749,-0.38741 -0.0171,-0.67733 z m -2.75357,-0.57477 c -0.0811,-0.20262 -0.14127,-0.14244 -0.15346,0.15346 -0.011,0.26775 0.049,0.41777 0.13341,0.33337 0.0844,-0.0844 0.0934,-0.30348 0.02,-0.48683 z m -3.2254,-1.66688 c -0.002,-0.10477 -0.11469,-0.36195 -0.25011,-0.5715 -0.1991,-0.30809 -0.24696,-0.27163 -0.25011,0.1905 -0.002,0.31433 0.11041,0.5715 0.25011,0.5715 0.1397,0 0.25225,-0.0857 0.25011,-0.1905 z m -0.41646,-1.97945 c -0.0827,-0.21558 -0.20488,-0.33748 -0.27146,-0.2709 -0.0666,0.0666 -0.0457,0.24296 0.0464,0.39195 0.25045,0.40525 0.39684,0.32652 0.22509,-0.12105 z m 0.92446,-0.0525 c -0.002,-0.10477 -0.11469,-0.36195 -0.25011,-0.5715 -0.1991,-0.30809 -0.24696,-0.27163 -0.25011,0.1905 -0.002,0.31433 0.11041,0.5715 0.25011,0.5715 0.1397,0 0.25225,-0.0857 0.25011,-0.1905 z m 4.00825,-1.8415 c 0.008,-0.20955 0.1315,-0.75247 0.27368,-1.2065 0.14217,-0.45402 0.18075,-0.82725 0.0857,-0.82939 -0.095,-0.002 -0.0177,-0.10215 0.17185,-0.22225 0.23286,-0.14755 0.25587,-0.27321 0.0709,-0.3875 -0.16174,-0.1 -0.33226,0.12079 -0.41692,0.53975 -0.0788,0.38989 -0.24365,1.05179 -0.36635,1.47089 -0.59987,2.049 -0.60418,2.08162 -0.20122,1.524 0.20191,-0.2794 0.37394,-0.67945 0.38229,-0.889 z m -7.38685,0.20638 c -0.0811,-0.20263 -0.14127,-0.14244 -0.15346,0.15346 -0.011,0.26775 0.049,0.41777 0.13341,0.33337 0.0844,-0.0844 0.0934,-0.30348 0.02,-0.48683 z m 10.922,-1.27 c -0.0811,-0.20263 -0.14127,-0.14244 -0.15346,0.15346 -0.011,0.26775 0.049,0.41777 0.13341,0.33337 0.0844,-0.0844 0.0934,-0.30348 0.02,-0.48683 z m -10.66549,-2.67804 c -0.0644,-0.24714 -0.12133,-0.10644 -0.1265,0.31266 -0.005,0.4191 0.0475,0.6213 0.11709,0.44934 0.0696,-0.17197 0.0738,-0.51487 0.009,-0.762 z m 9.08413,-1.06679 c 0.0804,-0.13004 0.03,-0.30824 -0.11201,-0.39599 -0.14198,-0.0877 -0.25814,0.0187 -0.25814,0.23645 0,0.44616 0.15242,0.51185 0.37015,0.15954 z m -8.37115,-0.27155 c 0.0863,-0.1397 0.0359,-0.254 -0.11201,-0.254 -0.14794,0 -0.26899,0.1143 -0.26899,0.254 0,0.1397 0.0504,0.254 0.11201,0.254 0.0616,0 0.18265,-0.1143 0.26899,-0.254 z m 8.20594,-1.65772 c -0.0782,-0.0782 -0.22023,0.0628 -0.31561,0.31327 -0.13784,0.362 -0.10867,0.39117 0.14219,0.14219 0.17359,-0.1723 0.25163,-0.37725 0.17342,-0.45546 z m 0.86186,0.33692 c -0.16764,-0.16764 -0.3048,-0.51054 -0.3048,-0.762 0,-0.25146 -0.1143,-0.4572 -0.254,-0.4572 -0.32292,0 -0.31884,0.0878 0.0408,0.87705 0.16213,0.35583 0.41359,0.64695 0.5588,0.64695 0.16006,0 0.144,-0.12003 -0.0408,-0.3048 z m -9.78329,-1.52082 c -0.0811,-0.20263 -0.14127,-0.14244 -0.15346,0.15346 -0.011,0.26775 0.049,0.41777 0.13341,0.33337 0.0844,-0.0844 0.0934,-0.30348 0.02,-0.48683 z m 20.78149,10.83177 c 0,-6.35075 0.0381,-11.43237 0.0847,-11.29248 0.0466,0.13988 0.27516,0.25258 0.508,0.25044 0.36886,-0.003 0.37431,-0.0389 0.0423,-0.27603 -0.29877,-0.21341 -0.24395,-0.24073 0.254,-0.12658 0.34925,0.0801 2.02127,0.14713 3.7156,0.14904 l 3.08061,0.003 0.27192,1.0713 c 0.3253,1.28157 0.17822,1.63665 -0.17274,0.41705 -0.15868,-0.5514 -0.25368,-0.6686 -0.26848,-0.3312 -0.0126,0.28719 0.2633,0.91009 0.61311,1.38423 0.40454,0.54832 0.57952,1.04007 0.48078,1.35116 -0.10205,0.32155 -0.0589,0.42955 0.12599,0.31528 0.15667,-0.0968 0.28121,-0.009 0.28121,0.19786 0,0.20441 0.27428,1.18237 0.60951,2.17323 0.33524,0.99086 0.48928,1.72726 0.34232,1.63643 -0.18111,-0.11193 -0.21007,0.19212 -0.0899,0.94373 0.20087,1.2562 0.3501,1.50568 0.62987,1.05301 0.11839,-0.19157 0.4289,0.43418 0.79551,1.60317 l 0.60132,1.91738 0.5782,-0.70681 c 0.318,-0.38875 0.56468,-0.93542 0.54816,-1.21482 -0.0165,-0.2794 -7.6e-4,-0.7366 0.0348,-1.016 0.0568,-0.44505 0.0917,-0.42932 0.28185,0.127 0.19394,0.56747 0.21212,0.54045 0.17087,-0.254 -0.0254,-0.48895 0.10668,-1.49378 0.2935,-2.23297 0.30648,-1.21271 0.37335,-1.29953 0.68473,-0.889 0.41162,0.54271 0.45244,0.34693 0.11352,-0.54449 -0.27703,-0.72863 0.11798,-0.90312 0.75616,-0.33404 0.29915,0.26676 0.30657,0.25161 0.0464,-0.0948 -0.1703,-0.22677 -0.24118,-0.62682 -0.15752,-0.88901 0.14064,-0.44072 0.11922,-0.43835 -0.28379,0.0313 -0.39091,0.45556 -0.41915,0.45968 -0.27365,0.0399 0.0892,-0.25745 0.23111,-0.74244 0.31527,-1.07774 0.0842,-0.33531 0.23226,-0.56067 0.32911,-0.50081 0.0969,0.0599 0.17611,-0.29507 0.17611,-0.78873 0,-0.58067 0.15245,-0.98288 0.4318,-1.13921 0.23749,-0.13291 0.43005,-0.37885 0.42791,-0.54653 -0.002,-0.18649 -0.0995,-0.15693 -0.25011,0.0761 -0.33629,0.52037 -0.3162,0.18396 0.0407,-0.68196 0.16211,-0.39328 0.27514,-0.84162 0.25119,-0.99632 -0.0392,-0.2532 4.4841,-0.25939 6.87017,-0.009 0.37679,0.0395 0.62722,-0.0218 0.55651,-0.13626 -0.0707,-0.1144 -0.008,-0.20802 0.14041,-0.20802 0.18537,0 0.26899,3.58331 0.26899,11.52664 v 11.52664 l -2.667,0.0426 -2.667,0.0426 v -6.37723 c 0,-4.80435 0.0733,-6.33193 0.29716,-6.19357 0.21023,0.12992 0.23735,0.0414 0.0927,-0.30251 -0.11245,-0.26739 -0.28518,-0.88622 -0.38384,-1.37517 l -0.17939,-0.889 -0.20847,0.75275 c -0.18836,0.68012 -0.2295,0.70462 -0.42653,0.254 -0.18361,-0.41995 -0.19903,-0.40117 -0.0976,0.1188 0.13818,0.70829 -0.59441,3.57345 -0.91369,3.57345 -0.27148,0 -0.26731,-0.0764 0.0497,-0.91028 0.23017,-0.60539 0.2147,-0.65002 -0.127,-0.36643 -0.44966,0.37318 -0.55101,1.91477 -0.10788,1.6409 0.38891,-0.24036 0.0265,0.90305 -0.46313,1.46131 -0.20672,0.23567 -0.30085,0.54983 -0.2092,0.69813 0.23802,0.38513 -0.91765,3.83239 -1.22177,3.64444 -0.15031,-0.0929 -0.18309,0.0227 -0.0815,0.28745 0.25436,0.66285 -0.081,1.67246 -0.55565,1.67266 -0.2749,1.2e-4 -0.43068,0.23642 -0.45724,0.69356 l -0.0403,0.69338 0.34877,-0.63006 c 0.42948,-0.77585 0.4699,-0.53206 0.0718,0.43291 -0.16226,0.39327 -0.28326,0.78064 -0.2689,0.86082 0.0144,0.0802 -0.53868,0.17156 -1.22898,0.20306 l -1.2551,0.0573 -0.03,-0.83806 -0.0301,-0.83806 -0.16045,0.74105 c -0.2245,1.03686 -0.66573,1.07767 -1.00114,0.0926 l -0.28385,-0.83364 0.14493,0.85728 c 0.20009,1.18354 -0.30358,0.81441 -0.5594,-0.40997 -0.23566,-1.12787 -0.20305,-1.01949 -0.5834,-1.93915 -0.16602,-0.40141 -0.24094,-1.14436 -0.16649,-1.651 0.099,-0.67338 0.0736,-0.78451 -0.0941,-0.41316 -0.22546,0.49914 -0.23295,0.49941 -0.42942,0.0152 -0.12678,-0.31241 -0.0903,-0.52933 0.0997,-0.59266 0.16484,-0.0549 0.2997,-0.21691 0.2997,-0.35991 0,-0.143 -0.19654,-0.18459 -0.43676,-0.0924 -0.24021,0.0922 -0.35551,0.0863 -0.2562,-0.013 0.0993,-0.0993 0.0786,-0.30538 -0.046,-0.45793 -0.12463,-0.15255 -0.53879,-1.30607 -0.92037,-2.56337 -0.38157,-1.2573 -0.74659,-2.45745 -0.81116,-2.667 -0.0779,-0.25301 -0.0453,-0.28378 0.0971,-0.0916 0.15503,0.20921 0.31773,0.17821 0.58714,-0.11185 0.32866,-0.35385 0.32594,-0.3833 -0.023,-0.24939 -0.61162,0.2347 -0.89059,-0.0749 -1.30844,-1.45215 -0.3655,-1.20468 -0.38667,-0.88386 -0.41176,6.23772 l -0.0264,7.5077 -2.6035,0.0383 -2.6035,0.0383 z m 4.88862,1.83757 c -0.0439,-1.7032 -0.0797,-0.23922 -0.0795,3.25328 1.6e-4,3.4925 0.0361,4.88602 0.0798,3.09672 0.0437,-1.78931 0.0436,-4.64681 -2.5e-4,-6.35 z m 14.47783,1.79278 c -0.0453,-1.43192 -0.0823,-0.26035 -0.0823,2.6035 0,2.86385 0.037,4.03543 0.0823,2.6035 0.0453,-1.43192 0.0453,-3.77507 0,-5.207 z m -4.76534,3.92201 c -0.003,-0.37014 -0.0379,-0.37685 -0.25011,-0.0485 -0.32146,0.49743 -0.32146,0.83368 0,0.635 0.1397,-0.0863 0.25225,-0.35026 0.25011,-0.58649 z m -5.41589,-2.65201 c -0.0705,-0.17462 -0.12812,-0.0317 -0.12812,0.3175 0,0.34925 0.0577,0.49213 0.12812,0.3175 0.0705,-0.17462 0.0705,-0.46037 0,-0.635 z m -0.79832,-0.93704 c -0.0927,-0.29196 -0.27485,-0.46509 -0.40487,-0.38473 -0.1422,0.0879 -0.12671,0.35107 0.0389,0.66044 0.34066,0.63653 0.59479,0.44509 0.36601,-0.27571 z m 0.8841,-0.52346 c 0,-0.1397 -0.12105,-0.254 -0.26899,-0.254 -0.14795,0 -0.19835,0.1143 -0.11201,0.254 0.0863,0.1397 0.20739,0.254 0.26899,0.254 0.0616,0 0.11201,-0.1143 0.11201,-0.254 z m 3.53815,-1.34849 c 0.01,-0.11302 -0.0965,-0.13485 -0.23615,-0.0485 -0.1397,0.0863 -0.24597,0.40741 -0.23615,0.71349 0.0172,0.53654 0.0257,0.53829 0.23615,0.0485 0.12006,-0.2794 0.22633,-0.60047 0.23615,-0.71349 z m 2.98007,-1.50901 c -0.0705,-0.17462 -0.12812,-0.0318 -0.12812,0.3175 0,0.34925 0.0577,0.49213 0.12812,0.3175 0.0705,-0.17462 0.0705,-0.46037 0,-0.635 z m -8.37671,0.0159 c -0.0811,-0.20262 -0.14127,-0.14244 -0.15346,0.15346 -0.011,0.26775 0.049,0.41777 0.13341,0.33337 0.0844,-0.0844 0.0934,-0.30348 0.02,-0.48683 z m 3.63649,0.17462 c 0,-0.20955 -0.0449,-0.381 -0.0998,-0.381 -0.0549,0 -0.16562,0.17145 -0.24603,0.381 -0.0804,0.20955 -0.0355,0.381 0.0998,0.381 0.13532,0 0.24603,-0.17145 0.24603,-0.381 z m 8.55802,-0.82066 c -0.0644,-0.24714 -0.12133,-0.10644 -0.1265,0.31266 -0.005,0.4191 0.0475,0.6213 0.11709,0.44934 0.0696,-0.17197 0.0738,-0.51487 0.009,-0.762 z m -12.44851,-1.63996 c -0.0811,-0.20263 -0.14127,-0.14244 -0.15346,0.15346 -0.011,0.26775 0.049,0.41777 0.13341,0.33337 0.0844,-0.0844 0.0934,-0.30348 0.02,-0.48683 z m -3.29949,-0.90004 c -0.0644,-0.24714 -0.12133,-0.10644 -0.1265,0.31266 -0.005,0.4191 0.0475,0.6213 0.11709,0.44934 0.0696,-0.17197 0.0738,-0.51487 0.009,-0.762 z m 1.01349,-0.11596 c -0.0811,-0.20263 -0.14127,-0.14244 -0.15346,0.15346 -0.011,0.26775 0.049,0.41777 0.13341,0.33337 0.0844,-0.0844 0.0934,-0.30348 0.02,-0.48683 z m 1.35049,0.17462 c 0,-0.20955 -0.11071,-0.381 -0.24603,-0.381 -0.13531,0 -0.18024,0.17145 -0.0998,0.381 0.0804,0.20955 0.19112,0.381 0.24603,0.381 0.0549,0 0.0998,-0.17145 0.0998,-0.381 z m 13.30492,-0.0132 c 0.0867,-0.22604 0.0442,-0.32799 -0.0998,-0.23901 -0.1381,0.0853 -0.25109,0.26274 -0.25109,0.39419 0,0.36537 0.18206,0.28486 0.35092,-0.15518 z m -3.98741,-0.92343 c -0.0811,-0.20262 -0.14127,-0.14244 -0.15346,0.15346 -0.011,0.26775 0.049,0.41777 0.13341,0.33337 0.0844,-0.0844 0.0934,-0.30348 0.02,-0.48683 z m -7.51795,-2.265 c -0.13385,-0.33461 -0.2506,-0.47485 -0.25946,-0.31165 -0.0215,0.3964 0.27438,1.14846 0.40174,1.0211 0.0556,-0.0556 -0.008,-0.37484 -0.14228,-0.70945 z m 1.23944,0.59812 c -0.0147,-0.31025 -0.73453,-1.48376 -0.74011,-1.2065 -0.003,0.1397 0.1014,0.42244 0.23159,0.6283 0.15611,0.24686 0.13317,0.44012 -0.0674,0.56761 -0.20589,0.13089 -0.16054,0.19457 0.14041,0.1972 0.24447,0.002 0.44045,-0.0818 0.4355,-0.18661 z m 8.137,-5.65151 c 0,-0.2794 -0.1036,-0.508 -0.23022,-0.508 -0.12662,0 -0.17044,0.2286 -0.0974,0.508 0.0731,0.2794 0.17667,0.508 0.23022,0.508 0.0536,0 0.0974,-0.2286 0.0974,-0.508 z m -31.47595,21.18784 c 0.0122,-0.2959 0.0724,-0.35608 0.15346,-0.15346 0.0734,0.18335 0.0643,0.40243 -0.02,0.48683 -0.0844,0.0844 -0.14444,-0.0656 -0.13341,-0.33337 z m 24.384,-12.446 c 0.0122,-0.2959 0.0724,-0.35609 0.15346,-0.15346 0.0734,0.18335 0.0643,0.40243 -0.02,0.48683 -0.0844,0.0844 -0.14444,-0.0656 -0.13341,-0.33337 z m -29.64424,-4.06998 c -0.0947,-0.26447 -0.21841,-0.56658 -0.27497,-0.67136 -0.0566,-0.10477 0.005,-0.1905 0.13654,-0.1905 0.25336,0 0.61029,1.043 0.42153,1.23177 -0.061,0.061 -0.18842,-0.10544 -0.2831,-0.36991 z m 7.52619,-5.17986 c 0,-0.1397 0.12105,-0.254 0.26899,-0.254 0.14795,0 0.19835,0.1143 0.11201,0.254 -0.0863,0.1397 -0.20739,0.254 -0.26899,0.254 -0.0616,0 -0.11201,-0.1143 -0.11201,-0.254 z M 323.76017,190.56886 c -3.95622,-1.06682 -6.98012,-4.12758 -8.01922,-8.11694 -0.34581,-1.32763 -0.38902,-10.33225 -0.38635,-80.49899 0.002,-65.15369 0.0626,-79.226783 0.34277,-80.274136 1.09813,-4.1048 4.34884,-7.324424 8.31934,-8.239787 1.54282,-0.355683 158.92694,-0.355683 160.46976,0 4.09708,0.944545 7.5015,4.440805 8.39433,8.620787 0.22586,1.05741 0.27961,20.691934 0.22109,80.772006 l -0.0773,79.375 -0.58884,1.45808 c -1.19165,2.95073 -3.63835,5.39743 -6.58908,6.58908 l -1.45808,0.58884 -79.629,0.0478 c -68.99175,0.0414 -79.81207,-0.002 -80.99942,-0.32175 z m 160.81745,-3.49593 c 1.68065,-0.65255 3.58167,-2.44466 4.43368,-4.17967 l 0.71129,-1.44846 v -79.375 -79.375006 l -0.66278,-1.397 c -0.85742,-1.807265 -2.25093,-3.206517 -4.01931,-4.035881 l -1.41391,-0.663119 h -79.375 -79.375 l -1.397,0.674689 c -1.82533,0.881555 -3.21937,2.266676 -4.03813,4.012308 l -0.66087,1.409003 v 79.375006 79.375 l 0.54887,1.18762 c 1.12757,2.43981 3.40223,4.2571 5.96159,4.76288 0.61049,0.12065 36.41111,0.20268 79.59554,0.18239 75.58835,-0.0355 78.53049,-0.0542 79.69103,-0.50476 z m -43.87703,-26.98579 c -3.91338,-0.39036 -6.21322,-0.72887 -8.73333,-1.28544 -12.1184,-2.6764 -21.22273,-9.25554 -27.11424,-19.59381 -0.71678,-1.25779 -1.05383,-2.11513 -0.95452,-2.42803 0.0924,-0.29126 0.0522,-0.42108 -0.10108,-0.32633 -0.14003,0.0865 -0.32242,-0.0194 -0.40531,-0.23538 -0.0863,-0.22489 -0.0434,-0.32641 0.10039,-0.23755 0.31894,0.19711 0.31739,-0.14117 -0.003,-0.6368 -0.21887,-0.33867 -0.24778,-0.33867 -0.26028,0 -0.008,0.21438 -0.17615,0.0825 -0.3847,-0.30166 -0.20386,-0.37546 -0.35262,-0.88981 -0.33059,-1.143 0.0824,-0.94688 -0.0493,-1.60334 -0.3216,-1.60334 -0.16646,0 -0.20833,0.18134 -0.10263,0.4445 0.0982,0.24447 0.23551,0.61595 0.30514,0.8255 0.11253,0.33867 0.0961,0.33867 -0.1474,0 -0.49815,-0.6927 -1.64434,-4.43108 -1.59647,-5.207 0.0358,-0.58097 -0.0127,-0.67149 -0.20434,-0.381 -0.21768,0.32998 -0.25186,0.32426 -0.25523,-0.0427 -0.002,-0.23305 -0.0718,-0.6331 -0.15485,-0.889 -0.1288,-0.39696 -0.10663,-0.40933 0.15096,-0.0843 0.25759,0.32506 0.27976,0.31269 0.15096,-0.0843 -0.083,-0.2559 -0.15271,-0.65595 -0.15485,-0.889 -0.003,-0.32919 -0.0518,-0.34809 -0.21876,-0.0847 -0.30336,0.47857 -0.55131,-0.56256 -0.37706,-1.58324 0.09,-0.52697 0.056,-0.6772 -0.10254,-0.45381 -0.16629,0.23426 -0.32461,-0.10218 -0.53049,-1.12733 -0.23101,-1.15031 -0.22592,-1.50299 0.0239,-1.65739 0.23739,-0.14672 0.19575,-0.28506 -0.16528,-0.54906 -0.37106,-0.27132 -0.44564,-0.53788 -0.32261,-1.15302 0.10237,-0.51189 0.0588,-0.80012 -0.12107,-0.80012 -0.18133,0 -0.23273,-0.36062 -0.14482,-1.016 0.0757,-0.56465 0.0297,-1.016 -0.10373,-1.016 -0.13201,0 -0.21976,-0.48578 -0.19502,-1.0795 0.0247,-0.59373 -0.03,-1.47955 -0.12168,-1.9685 -0.10806,-0.57637 -0.0906,-0.71514 0.0495,-0.3946 0.20742,0.47434 0.2221,0.47176 0.36208,-0.0635 0.0992,-0.37923 0.0315,-0.5579 -0.21133,-0.5579 -0.25373,0 -0.35205,-0.31275 -0.33937,-1.0795 0.0138,-0.83128 0.0675,-0.96269 0.23368,-0.5715 0.13482,0.31734 0.1635,-0.0163 0.0764,-0.889 -0.0767,-0.76835 -0.23899,-1.50559 -0.36068,-1.6383 -0.12169,-0.13272 -0.22126,-0.50419 -0.22126,-0.8255 0,-0.35979 -0.15212,-0.5842 -0.39599,-0.5842 -0.2178,0 -0.34279,-0.0857 -0.27777,-0.1905 0.065,-0.10478 -1.6713,-0.16252 -3.85851,-0.12831 -2.1872,0.0342 -8.38775,0.0914 -13.77901,0.127 -9.68387,0.064 -9.80105,0.0587 -9.7009,-0.44319 0.0722,-0.3616 -0.015,-0.30671 -0.30233,0.1905 l -0.40371,0.6985 h -7.59022 -7.59022 l -0.13939,-1.8415 c -0.0767,-1.01283 -0.20139,-2.84163 -0.27715,-4.064 l -0.13776,-2.222502 h 7.74848 c 7.65318,0 7.74848,-0.0064 7.74848,-0.522991 0,-0.287645 0.1143,-0.452349 0.254,-0.366009 0.15073,0.09316 0.254,-0.202105 0.254,-0.726237 0,-0.485767 0.0754,-1.092589 0.16747,-1.348488 0.0921,-0.255903 0.0743,-0.380813 -0.0395,-0.277579 -0.11385,0.10323 -0.29868,0.61758 -0.41073,1.143 -0.14783,0.693196 -0.16511,0.537161 -0.063,-0.568696 0.15423,-1.669712 0.26509,-1.938493 0.58561,-1.419873 0.1439,0.232834 0.27026,3.3e-5 0.39241,-0.722973 0.0991,-0.586511 0.11167,-1.134885 0.028,-1.218603 -0.0837,-0.08372 -0.15222,0.175443 -0.15222,0.575915 0,0.444761 -0.0899,0.634225 -0.23108,0.486834 -0.3146,-0.328519 0.46913,-3.45614 0.81282,-3.243725 0.16122,0.09964 0.20577,-0.04759 0.11705,-0.386857 -0.0788,-0.301244 -0.0329,-0.547718 0.10198,-0.547718 0.13487,0 0.18432,-0.09853 0.10989,-0.218956 -0.21561,-0.348872 0.6559,-2.324722 0.94625,-2.145279 0.16259,0.10049 0.19603,-0.0088 0.0885,-0.289187 -0.17853,-0.465234 1.40678,-3.732423 2.41116,-4.969185 0.28246,-0.347817 0.42883,-0.471858 0.32528,-0.275648 -0.1212,0.229626 -0.0877,0.294607 0.0939,0.182364 0.15519,-0.09591 0.22836,-0.314566 0.16261,-0.485904 -0.12014,-0.313081 1.80471,-2.879246 3.63175,-4.841761 2.24507,-2.411543 6.00402,-5.365319 6.47958,-5.091649 0.17457,0.100457 0.2324,0.08885 0.12852,-0.02579 -0.24609,-0.271562 0.74583,-0.967222 1.08247,-0.759168 0.14173,0.08759 0.19194,0.265666 0.11156,0.395714 -0.18573,0.300525 -0.11126,0.296863 0.86195,-0.0424 0.43994,-0.153365 0.80112,-0.41054 0.80261,-0.5715 0.006,-0.623344 1.77153,-1.965003 3.3859,-2.572647 0.93026,-0.350152 1.69139,-0.566476 1.69139,-0.48072 0,0.08575 0.14287,0.03928 0.3175,-0.103267 0.59191,-0.483199 2.96967,-1.043287 3.93204,-0.926203 0.73381,0.08928 0.8388,0.06024 0.44946,-0.12431 -0.42827,-0.203007 -0.36516,-0.243601 0.40217,-0.258651 0.50059,-0.0098 0.98234,-0.09003 1.07056,-0.178249 0.4477,-0.447696 -2.66468,-4.430871 -5.84774,-7.483844 -12.32947,-11.825613 -31.40598,-14.620929 -56.96448,-8.347109 -2.16452,0.531323 -3.97397,0.927553 -4.02101,0.880514 -0.13106,-0.131064 4.13363,-2.120122 6.57424,-3.066242 4.02454,-1.560129 12.99351,-3.573818 20.30526,-4.558876 4.11643,-0.554576 13.13714,-0.770288 16.891,-0.403911 11.43956,1.116495 20.71212,5.147765 27.53546,11.971115 3.20245,3.202442 6.19847,7.443313 7.75573,10.978248 0.35387,0.803275 0.54388,1.460501 0.42223,1.460501 -0.12164,0 -0.28095,-0.2286 -0.35402,-0.508 -0.0767,-0.293241 -0.33081,-0.495544 -0.60112,-0.478537 -0.42534,0.02676 -0.42752,0.04012 -0.0238,0.145626 0.24447,0.06389 0.45237,0.250653 0.462,0.415034 0.0593,1.012944 0.24496,1.805945 0.47716,2.038144 0.18711,0.187109 0.26734,0.105997 0.26734,-0.270302 0,-0.295696 -0.14288,-0.58866 -0.3175,-0.651024 -0.17463,-0.06237 -0.23454,-0.202479 -0.13314,-0.311364 0.29992,-0.322059 1.00446,0.433761 0.87298,0.936529 -0.0665,0.254426 -0.032,0.407593 0.0768,0.34037 0.29029,-0.179411 1.09486,2.084964 0.87585,2.465006 -0.10254,0.177935 -0.09,0.23589 0.0279,0.128789 0.11786,-0.107102 0.36479,0.163195 0.54873,0.600661 0.38876,0.924599 0.43922,1.546241 0.0804,0.991068 -0.21043,-0.325603 -0.24679,-0.31637 -0.25012,0.0635 -0.002,0.244475 0.1525,0.4445 0.34364,0.4445 0.47096,0 1.26547,2.842321 1.2425,4.445 -0.013,0.908586 0.0334,1.089292 0.16312,0.635 0.15056,-0.527281 0.23494,-0.365242 0.4974,0.95521 0.17385,0.874616 0.25108,1.695394 0.17163,1.823949 -0.0795,0.128557 -0.0174,0.312301 0.13802,0.40832 0.2662,0.164521 0.25348,0.44938 -0.14684,3.289521 -0.0837,0.594025 -0.033,0.538033 0.23004,-0.254 l 0.33745,-1.016 0.18964,1.70958 c 0.1043,0.940268 0.12835,1.869316 0.0534,2.064548 -0.0749,0.195235 -0.0326,0.458592 0.094,0.585239 0.12665,0.126647 0.26059,1.883649 0.29765,3.90445 l 0.0674,3.674184 22.00594,-0.0676 22.00593,-0.0676 0.14133,0.575602 c 0.0777,0.316581 0.22144,2.146049 0.31937,4.065479 l 0.17804,3.48989 -11.52687,0.0661 c -11.31093,0.0649 -11.52808,0.0756 -11.59165,0.57412 l -0.0648,0.508 0.23399,-0.508 c 0.18325,-0.39784 0.234,-0.26014 0.234,0.635 0,0.78699 -0.0603,0.98901 -0.19348,0.6486 -0.17919,-0.45789 -0.20575,-0.44851 -0.35968,0.127 -0.24233,0.90602 -0.18748,1.49986 0.0809,0.8754 0.30592,-0.71191 0.32615,0.0712 0.0269,1.0416 -0.1249,0.40502 -0.36532,1.40982 -0.53427,2.23289 -0.21702,1.05729 -0.37494,1.39274 -0.53808,1.143 -0.1595,-0.24417 -0.21951,-0.0786 -0.19402,0.53551 0.0203,0.48895 -0.11103,1.2319 -0.29183,1.651 -0.1808,0.4191 -0.31911,0.82123 -0.30734,0.89362 0.0538,0.33129 -2.44833,4.94838 -2.68171,4.94838 -0.14482,0 -0.35857,0.10405 -0.47498,0.23122 -0.12298,0.13434 -0.0786,0.15467 0.10583,0.0485 0.17462,-0.10049 0.3175,-0.0882 0.3175,0.0273 0,0.36545 -1.30843,2.15219 -1.46292,1.9977 -0.0813,-0.0813 0.10035,-0.41184 0.40359,-0.73462 0.77593,-0.82595 0.68971,-1.05042 -0.10011,-0.2606 -0.37088,0.37088 -0.58904,0.81404 -0.50655,1.029 0.18278,0.47631 -2.51266,3.72332 -4.79341,5.7743 -1.77956,1.60027 -4.68899,3.76197 -4.37121,3.24778 0.12664,-0.20491 0.0594,-0.25607 -0.20374,-0.15509 -0.216,0.0829 -0.33641,0.24184 -0.26757,0.35323 0.0688,0.11138 -0.26595,0.43328 -0.74398,0.71532 -0.68476,0.40402 -0.89692,0.44042 -1.00008,0.17159 -0.1442,-0.37578 -1.17802,-0.22487 -1.17802,0.17195 0,0.13166 -0.1143,0.16873 -0.254,0.0824 -0.1397,-0.0863 -0.254,-0.0237 -0.254,0.13918 0,0.16289 0.17145,0.22679 0.381,0.14199 0.20955,-0.0848 0.5712,-0.23074 0.80367,-0.32434 0.72005,-0.28988 0.12987,0.38809 -0.72073,0.82796 -0.42562,0.22009 -0.71509,0.305 -0.64327,0.18869 0.0718,-0.11631 -0.16821,-0.22946 -0.53339,-0.25143 -0.58699,-0.0353 -0.60917,-0.009 -0.19132,0.22456 0.44582,0.24949 0.43803,0.2837 -0.13715,0.60245 -0.3354,0.18587 -0.72411,0.33794 -0.86381,0.33794 -0.1397,0 0.0318,-0.16335 0.381,-0.363 0.34925,-0.19965 0.49213,-0.36705 0.3175,-0.372 -0.17462,-0.005 -0.53081,0.20431 -0.79151,0.46501 -0.26071,0.26071 -0.9985,0.67432 -1.63953,0.91913 l -1.16552,0.44512 0.90369,1.43037 c 11.45872,18.13699 32.63607,23.60186 63.05758,16.27216 2.29196,-0.55222 4.20771,-0.96353 4.25723,-0.91402 0.1201,0.1201 -4.38311,2.22496 -6.77344,3.16599 -3.66896,1.4444 -12.87356,3.45934 -20.02609,4.38382 -3.75297,0.48507 -12.73461,0.83998 -15.15291,0.59876 z m -35.306,-23.84868 c 0.48456,-0.20153 0.48596,-0.21648 0.0304,-0.32396 -0.26266,-0.062 -0.57524,0.0414 -0.69461,0.22981 -0.26766,0.42235 -0.2963,0.96623 -0.0304,0.57796 0.10264,-0.14989 0.41521,-0.3676 0.69461,-0.48381 z m 2.48133,-0.0453 c -0.17196,-0.0696 -0.51486,-0.0738 -0.762,-0.009 -0.24713,0.0644 -0.10643,0.12132 0.31267,0.1265 0.4191,0.005 0.6213,-0.0475 0.44933,-0.11709 z m 3.48767,-0.60023 c 0,-0.15366 -0.28383,-0.19075 -0.6985,-0.0913 -0.9972,0.23923 -1.03072,0.35011 -0.10583,0.35011 0.44238,0 0.80433,-0.11648 0.80433,-0.25884 z m -6.858,-0.23417 c 0,-0.13145 -0.1143,-0.30965 -0.254,-0.39599 -0.1397,-0.0863 -0.254,0.0212 -0.254,0.23901 0,0.21779 0.1143,0.39599 0.254,0.39599 0.1397,0 0.254,-0.10755 0.254,-0.23901 z m 4.1275,0.0708 c -0.17463,-0.0705 -0.46038,-0.0705 -0.635,0 -0.17463,0.0705 -0.0317,0.12812 0.3175,0.12812 0.34925,0 0.49212,-0.0577 0.3175,-0.12812 z m 4.5085,-0.37399 c 0.24868,-0.14802 0.11637,-0.17006 -0.381,-0.0635 -0.4191,0.0898 -0.8763,0.27568 -1.016,0.41304 -0.29109,0.28622 0.77843,0.0186 1.397,-0.34955 z m 2.93595,-0.87553 c 0.45118,-0.36761 0.45354,-0.38918 0.0278,-0.254 -0.2559,0.0813 -0.57023,0.14774 -0.6985,0.14774 -0.12828,0 -0.23323,0.1143 -0.23323,0.254 0,0.36778 0.33933,0.31232 0.90395,-0.14774 z m 0.76158,-0.92513 c 0.0825,-0.0825 -0.26996,-0.11103 -0.78334,-0.0633 -0.51338,0.0477 -0.99449,0.14782 -1.06912,0.22245 -0.0746,0.0746 0.27787,0.10313 0.78334,0.0633 0.50548,-0.0398 0.98658,-0.13991 1.06912,-0.22245 z m -14.95402,-1.76876 c -0.0811,-0.20262 -0.14127,-0.14243 -0.15346,0.15346 -0.011,0.26776 0.049,0.41778 0.13341,0.33338 0.0844,-0.0844 0.0934,-0.30348 0.02,-0.48684 z m 19.47214,-0.0903 c -0.0827,-0.21557 -0.20488,-0.33748 -0.27146,-0.27089 -0.0666,0.0666 -0.0457,0.24296 0.0464,0.39195 0.25045,0.40525 0.39684,0.32652 0.22509,-0.12106 z m -19.31604,-0.79337 c -0.0715,-0.18627 -0.23203,-0.33867 -0.35679,-0.33867 -0.12475,0 -0.22682,0.1524 -0.22682,0.33867 0,0.18626 0.16055,0.33866 0.35678,0.33866 0.19623,0 0.29831,-0.1524 0.22683,-0.33866 z m 18.1436,0.26987 c -0.0844,-0.0844 -0.30348,-0.0934 -0.48684,-0.02 -0.20262,0.0811 -0.14243,0.14127 0.15346,0.15346 0.26776,0.011 0.41778,-0.049 0.33338,-0.13341 z m 3.60602,-1.52015 c -0.34037,-0.41013 0.0362,-0.49341 0.43364,-0.0959 0.18062,0.18062 0.26246,0.15422 0.26246,-0.0847 0,-0.40755 -0.6653,-0.4723 -1.12496,-0.10948 -0.37488,0.2959 0.0853,1.04463 0.48874,0.79527 0.14027,-0.0867 0.11574,-0.2936 -0.0599,-0.5052 z m 2.22303,-0.90223 c 0.77438,-0.63567 0.78296,-0.66266 0.21065,-0.66266 -0.43268,0 -0.55538,0.1074 -0.44659,0.39092 0.10648,0.27747 0.0524,0.33058 -0.1864,0.183 -0.21185,-0.13093 -0.2754,-0.10919 -0.17162,0.0587 0.0906,0.14664 -0.006,0.33217 -0.21476,0.41227 -0.20875,0.0801 -0.37779,0.29211 -0.37565,0.47112 0.003,0.20376 0.0737,0.22895 0.1905,0.0674 0.10264,-0.14195 0.54988,-0.55628 0.99387,-0.92075 z m 0.33574,-1.48816 c 0.20955,-0.13542 0.2667,-0.24622 0.127,-0.24622 -0.1397,0 -0.42545,0.1108 -0.635,0.24622 -0.20955,0.13542 -0.2667,0.24622 -0.127,0.24622 0.1397,0 0.42545,-0.1108 0.635,-0.24622 z m 2.159,-1.016 c 0.0863,-0.1397 0.0359,-0.254 -0.11201,-0.254 -0.14794,0 -0.26899,0.1143 -0.26899,0.254 0,0.1397 0.0504,0.254 0.11201,0.254 0.0616,0 0.18265,-0.1143 0.26899,-0.254 z m -0.6299,-0.64114 c 0.49082,-0.59141 0.1406,-0.70286 -0.38469,-0.12242 -0.25363,0.28026 -0.34312,0.50956 -0.19888,0.50956 0.14425,0 0.40685,-0.17421 0.58357,-0.38714 z m 2.87905,-1.51434 c 0.66168,-0.76641 1.03521,-1.32908 0.83009,-1.25036 -0.20513,0.0787 -0.4451,0.3311 -0.53327,0.56086 -0.13454,0.35062 -0.19611,0.35979 -0.38318,0.0571 -0.16834,-0.27237 -0.26659,-0.17738 -0.40145,0.38812 -0.0982,0.41181 -0.35238,0.94877 -0.56482,1.19325 -0.21244,0.24447 -0.33319,0.4445 -0.26833,0.4445 0.0649,0 0.65929,-0.62707 1.32096,-1.39348 z m -30.78605,-1.09149 c -0.16066,-0.0536 -0.2921,-0.27834 -0.2921,-0.49953 0,-0.22119 -0.0764,-0.3258 -0.16972,-0.23245 -0.0933,0.0933 -0.0112,0.46595 0.18261,0.82803 0.2183,0.40789 0.39396,0.53335 0.46181,0.32981 0.0602,-0.18067 -0.022,-0.37231 -0.1826,-0.42586 z m 0.63812,-0.88053 c -0.0705,-0.17463 -0.12812,-0.0317 -0.12812,0.3175 0,0.34925 0.0577,0.49212 0.12812,0.3175 0.0705,-0.17463 0.0705,-0.46038 0,-0.635 z m 33.86778,-3.42399 c 0,-0.22523 0.18916,-0.61854 0.42037,-0.87401 0.2312,-0.25548 0.31121,-0.4645 0.1778,-0.4645 -0.43269,0 -0.85217,0.59503 -0.85217,1.20879 0,0.38824 -0.10324,0.53538 -0.29325,0.41795 -0.18314,-0.11319 -0.22423,-0.0696 -0.10944,0.11616 0.2371,0.38364 0.65669,0.12526 0.65669,-0.40439 z m -1.09398,-0.76218 c -0.0644,-0.24713 -0.12133,-0.10643 -0.1265,0.31267 -0.005,0.4191 0.0475,0.6213 0.11709,0.44933 0.0696,-0.17196 0.0738,-0.51486 0.009,-0.762 z m 2.74498,-2.35433 c 0.43017,-0.83186 0.25719,-1.02703 -0.28142,-0.3175 -0.33132,0.43645 -0.47017,1.0795 -0.2331,1.0795 0.0663,0 0.29779,-0.3429 0.51452,-0.762 z m -0.19065,-1.90449 c -0.0827,-1.15941 -0.42213,-1.16095 -0.36279,-0.002 0.025,0.48833 0.1311,0.88838 0.23579,0.889 0.10469,5.1e-4 0.16184,-0.39868 0.127,-0.88735 z m 1.07065,-0.85517 c -0.0184,-0.33047 -0.73496,1.12361 -0.73406,1.48966 5.1e-4,0.20955 0.16792,-0.004 0.372,-0.47366 0.20408,-0.47007 0.36701,-0.92727 0.36206,-1.016 z m 0.69051,-2.11397 c -0.0811,-0.20262 -0.14127,-0.14243 -0.15346,0.15346 -0.011,0.26776 0.049,0.41778 0.13341,0.33338 0.0844,-0.0844 0.0934,-0.30348 0.02,-0.48684 z m 0.53458,-2.5271 c -0.0634,-0.19023 -0.17855,-0.0751 -0.26836,0.26837 -0.11049,0.42249 -0.0774,0.52166 0.11106,0.33317 0.1476,-0.1476 0.21838,-0.41829 0.1573,-0.60154 z m -40.19141,-1.21314 c -0.29192,-0.47234 -0.60811,-0.30285 -0.46389,0.24866 0.0895,0.34233 0.22369,0.43833 0.38589,0.27613 0.13676,-0.13676 0.17186,-0.37292 0.078,-0.52479 z m -27.91246,-1.10163 c -0.0705,-0.17463 -0.12812,-0.0317 -0.12812,0.3175 0,0.34925 0.0577,0.49212 0.12812,0.3175 0.0705,-0.17463 0.0705,-0.46038 0,-0.635 z m 67.31687,-0.381 c -0.0639,-0.24448 -0.11616,-0.0444 -0.11616,0.4445 0,0.48895 0.0523,0.68897 0.11616,0.4445 0.0639,-0.24448 0.0639,-0.64453 0,-0.889 z m 0.76042,0.14287 c -0.0811,-0.20262 -0.14127,-0.14243 -0.15346,0.15346 -0.011,0.26776 0.049,0.41778 0.13341,0.33338 0.0844,-0.0844 0.0934,-0.30348 0.02,-0.48684 z m -69.36606,-0.90359 c -0.27317,-0.27317 -0.41819,0.10941 -0.22643,0.59736 0.17988,0.45773 0.19347,0.45852 0.28243,0.0165 0.0514,-0.25541 0.0262,-0.53164 -0.056,-0.61384 z m 69.95698,-7.303782 c -0.14831,-0.760982 -0.20534,-0.845889 -0.22722,-0.338275 -0.0277,0.642209 0.20843,1.588753 0.35639,1.42873 0.0379,-0.04095 -0.0203,-0.531655 -0.12917,-1.090455 z m -1.35041,-0.566667 c -0.0644,-0.247134 -0.12133,-0.106433 -0.1265,0.312667 -0.005,0.4191 0.0475,0.621299 0.11709,0.449334 0.0696,-0.171966 0.0738,-0.514866 0.009,-0.762001 z m -67.62038,-0.63329 c -0.23448,-0.317924 -0.35739,-0.406593 -0.27315,-0.197043 0.0842,0.20955 0.23044,0.606651 0.32486,0.882449 0.0964,0.281511 0.21619,0.367934 0.27315,0.197043 0.0558,-0.167424 -0.0904,-0.564525 -0.32486,-0.882449 z m 0.30258,-1.530543 c -0.0705,-0.174625 -0.12812,-0.03175 -0.12812,0.3175 0,0.34925 0.0577,0.492125 0.12812,0.3175 0.0705,-0.174625 0.0705,-0.460375 0,-0.635 z m 1.208,-6.264951 c -0.15771,-0.157704 -0.27783,0.03306 -0.46626,0.740451 l -0.16915,0.635 0.37081,-0.634617 c 0.20395,-0.349039 0.32302,-0.682414 0.2646,-0.740834 z m 44.59778,-0.65655 c 0,-0.34925 -0.1143,-0.635 -0.254,-0.635 -0.1397,0 -0.254,0.28575 -0.254,0.635 0,0.34925 0.1143,0.635 0.254,0.635 0.1397,0 0.254,-0.28575 0.254,-0.635 z m -43.02996,-2.60163 c -0.17615,-0.176147 -0.65804,0.181749 -0.65804,0.488721 0,0.168428 0.14574,0.149157 0.38714,-0.05119 0.21292,-0.176713 0.33483,-0.373603 0.2709,-0.437535 z m 1.1568,-1.624155 c -0.17507,-0.473268 -0.22898,-0.492796 -0.36705,-0.132974 -0.089,0.231968 -0.0444,0.421759 0.0992,0.421759 0.14356,0 0.18923,0.116165 0.10148,0.258143 -0.0877,0.141978 -0.25805,0.197264 -0.37844,0.122857 -0.28423,-0.175664 -0.58312,0.307958 -0.38673,0.625737 0.0846,0.136858 0.36846,0.02753 0.64402,-0.248026 0.35953,-0.359534 0.43728,-0.642742 0.28755,-1.047496 z m 41.54118,0.611119 c -0.0644,-0.247134 -0.12133,-0.106434 -0.1265,0.312666 -0.005,0.4191 0.0475,0.6213 0.11709,0.449334 0.0696,-0.171966 0.0738,-0.514866 0.009,-0.762 z m -0.43249,-2.029529 c -0.27443,-0.427708 -0.28209,-0.426989 -0.14371,0.01346 0.0804,0.2559 0.16175,0.7131 0.18077,1.016 0.0346,0.55018 0.0347,0.550167 0.14371,-0.01346 0.06,-0.310309 -0.0213,-0.767509 -0.18077,-1.016 z m -39.90143,-0.229011 c -0.14951,-0.180147 -0.18718,-0.464508 -0.0837,-0.631912 0.11509,-0.186215 0.0806,-0.237894 -0.089,-0.133126 -0.37855,0.233957 -0.28549,1.092578 0.11842,1.092578 0.23742,0 0.25218,-0.08908 0.0543,-0.32754 z m 0.96141,-0.905419 c -0.0811,-0.202623 -0.14127,-0.142438 -0.15346,0.153459 -0.011,0.267757 0.049,0.417777 0.13341,0.333375 0.0844,-0.0844 0.0934,-0.303479 0.02,-0.486834 z m 0.35946,-0.831423 c 0.30382,0.183101 0.30457,0.151132 0.005,-0.218011 -0.33,-0.406761 -0.3712,-0.405882 -0.69042,0.01473 -0.18672,0.246024 -0.34312,0.554888 -0.34757,0.686364 -0.004,0.131475 0.14604,0.02829 0.3344,-0.229306 0.22674,-0.310086 0.46277,-0.395846 0.6985,-0.253789 z m 1.75303,-0.819752 c 0,-0.320304 -0.11203,-0.281755 -0.508,0.1748 -0.2794,0.322151 -0.508,0.629412 -0.508,0.6828 0,0.05339 0.2286,-0.02527 0.508,-0.1748 0.2794,-0.14953 0.508,-0.456791 0.508,-0.6828 z m -0.9424,-0.5872 c 0.0731,-0.2794 0.11179,-0.508 0.0861,-0.508 -0.0257,0 -0.2425,0.2286 -0.48173,0.508 -0.33308,0.389001 -0.35324,0.508 -0.0861,0.508 0.19189,0 0.40867,-0.2286 0.48174,-0.508 z m 2.21128,-1.395646 c 0.17329,-0.208806 0.25475,-0.610352 0.18101,-0.892325 -0.0888,-0.339591 0.0297,-0.600327 0.35102,-0.77229 0.2668,-0.142786 0.4807,-0.398465 0.47533,-0.568175 -0.0101,-0.318706 -2.26171,2.082556 -2.27102,2.421936 -0.009,0.342204 0.9407,0.199992 1.26366,-0.189146 z M 378.98,76.66824 c 0.25363,-0.280256 0.51623,-0.45447 0.58356,-0.387139 0.17067,0.170672 -0.46284,0.896696 -0.78244,0.896696 -0.14424,0 -0.0548,-0.229301 0.19888,-0.509557 z m 34.92359,-0.379443 c 0.01,0.324576 0.50022,-0.42228 0.50022,-0.762 0,-0.1397 -0.0968,-0.101364 -0.21501,0.08519 -0.11825,0.186558 -0.31653,0.323395 -0.44061,0.304084 -0.12408,-0.0193 -0.26032,0.170952 -0.30276,0.422806 -0.0652,0.386953 -0.0363,0.398874 0.18662,0.07692 0.14507,-0.20955 0.26726,-0.2667 0.27154,-0.127 z m -32.004,-0.7931 c 0,-0.337515 -0.069,-0.354871 -0.381,-0.0959 -0.20955,0.173911 -0.381,0.359357 -0.381,0.4121 0,0.05275 0.17145,0.0959 0.381,0.0959 0.20955,0 0.381,-0.185445 0.381,-0.4121 z m 31.29889,-1.409753 c -0.10114,-0.100668 -0.20373,0.239494 -0.22798,0.755911 -0.0436,0.929135 -0.0417,0.931045 0.18388,0.18303 0.12539,-0.415752 0.14524,-0.838276 0.0441,-0.938941 z m -31.67989,0.551853 c 0.0863,-0.1397 0.0427,-0.254 -0.097,-0.254 -0.1397,0 -0.32464,0.1143 -0.41098,0.254 -0.0863,0.1397 -0.0427,0.254 0.097,0.254 0.1397,0 0.32464,-0.1143 0.41098,-0.254 z m 0.7602,-1.013092 c 0.089,-0.143982 -0.013,-0.186563 -0.23901,-0.09982 -0.44003,0.168856 -0.52054,0.350916 -0.15518,0.350916 0.13145,0 0.30884,-0.112992 0.39419,-0.251092 z m 1.1448,0.139083 c 0,-0.06161 -0.1143,-0.182652 -0.254,-0.268991 -0.1397,-0.08634 -0.254,-0.03594 -0.254,0.112009 0,0.147945 0.1143,0.268991 0.254,0.268991 0.1397,0 0.254,-0.0504 0.254,-0.112009 z m 0.127,-0.649991 c -0.0863,-0.1397 0.0145,-0.254 0.22402,-0.254 0.20955,0 0.43987,-0.09525 0.51182,-0.211666 0.1876,-0.303553 -0.67321,-0.276591 -1.06536,0.03337 -0.27003,0.213434 -0.27003,0.298196 0,0.469488 0.43785,0.277752 0.51854,0.268646 0.32952,-0.03719 z m 8.44021,-3.45546 c -0.0844,-0.0844 -0.30348,-0.09342 -0.48684,-0.02004 -0.20262,0.08108 -0.14243,0.14127 0.15346,0.153456 0.26776,0.01102 0.41778,-0.049 0.33338,-0.133405 z m -2.53277,-0.394576 c 0.22271,-0.222712 0.38906,-0.215168 0.6858,0.0311 0.28344,0.23524 0.39176,0.242918 0.39176,0.02777 0,-0.163548 0.37147,-0.46895 0.8255,-0.67867 l 0.8255,-0.38131 -0.75945,0.15971 c -0.41771,0.08784 -0.83355,0.279588 -0.92411,0.42611 -0.0906,0.146523 -0.29152,0.187988 -0.4466,0.09215 -0.15507,-0.09584 -0.53618,0.0038 -0.84691,0.22146 -0.31073,0.217643 -0.44809,0.395715 -0.30525,0.395715 0.14285,0 0.39204,-0.132317 0.55376,-0.294036 z m 5.52256,-1.737964 c -0.69827,-0.300056 -1.0993,-0.300056 -0.635,0 0.20955,0.135422 0.55245,0.239938 0.762,0.232257 0.25122,-0.0092 0.20796,-0.08832 -0.127,-0.232257 z m 3.61421,-0.15346 c -0.0844,-0.0844 -0.30348,-0.09342 -0.48684,-0.02004 -0.20262,0.08108 -0.14243,0.141269 0.15346,0.153456 0.26776,0.01102 0.41778,-0.049 0.33338,-0.133406 z m 2.10079,-0.12907 c 0,-0.09445 -0.28567,-0.155247 -0.63482,-0.1351 -0.34915,0.02014 -0.6349,0.121074 -0.635,0.224285 -10e-5,0.10321 0.28557,0.164005 0.63482,0.1351 0.34925,-0.0289 0.635,-0.129832 0.635,-0.224285 z m 8.4455,0.11431 c -0.17463,-0.07046 -0.46038,-0.07046 -0.635,0 -0.17463,0.07046 -0.0317,0.128115 0.3175,0.128115 0.34925,0 0.49212,-0.05765 0.3175,-0.128115 z m -1.65629,-0.23924 c -0.0844,-0.0844 -0.30348,-0.09342 -0.48683,-0.02004 -0.20263,0.08108 -0.14244,0.141269 0.15345,0.153456 0.26776,0.01102 0.41778,-0.049 0.33338,-0.133406 z m -7.61242,-0.608541 c 0.5062,0 0.78911,-0.103682 0.69563,-0.254932 -0.19917,-0.322275 -1.42046,-0.04871 -1.84183,0.41256 -0.19998,0.218917 -0.2047,0.254424 -0.0127,0.09547 0.16814,-0.139202 0.68965,-0.253094 1.1589,-0.253094 z m 8.95121,-0.100319 c 0,-0.05518 -0.4572,-0.143924 -1.016,-0.197214 -0.5588,-0.05329 -1.016,-0.0082 -1.016,0.10032 0,0.108468 0.4572,0.197213 1.016,0.197213 0.5588,0 1.016,-0.04514 1.016,-0.100319 z m -22.97615,4.435871 c -0.2557,-0.413718 0.23033,-0.493974 0.739,-0.122027 0.47843,0.349837 0.47719,0.358476 -0.0513,0.358476 -0.29786,0 -0.60732,-0.106403 -0.68769,-0.236449 z m 0.62415,-0.478508 c 0,-0.113825 0.42862,-0.407101 0.9525,-0.651723 l 0.9525,-0.444767 -0.68742,0.651723 c -0.68207,0.646664 -1.21758,0.842277 -1.21758,0.444767 z"
             style="fill:#006fb7;stroke-width:0.25400001" />
          <path
             inkscape:connector-curvature="0"
             id="path266"
             d="m 342.00364,228.72249 c -2.52594,-0.68107 -4.64611,-2.4607 -6.00565,-5.04107 -0.65502,-1.24321 -0.7074,-1.55888 -0.7074,-4.26362 0,-2.87497 0.0143,-2.94701 0.91043,-4.572 1.09172,-1.97976 2.86993,-3.5232 4.97128,-4.31494 1.99856,-0.753 5.44257,-0.64003 7.27042,0.2385 1.901,0.9137 3.61448,2.61832 4.55661,4.53305 0.77916,1.58355 0.83216,1.85869 0.81626,4.23795 -0.0186,2.78906 -0.35462,3.85667 -1.85901,5.90698 -2.05977,2.80726 -6.39609,4.23418 -9.95294,3.27515 z m 4.49244,-4.71062 c 2.04311,-0.92782 3.25593,-3.57931 2.65476,-5.8039 -0.32711,-1.21043 -1.50366,-2.69034 -2.58234,-3.24814 -1.02389,-0.52947 -3.10753,-0.46477 -4.27902,0.13289 -3.48019,1.77546 -3.35357,6.92928 0.21656,8.81408 1.3465,0.71087 2.58425,0.74347 3.99004,0.10507 z m 9.74951,-4.45718 v -9.28089 h 4.0179 c 2.81353,0 4.39855,0.11304 5.28778,0.37712 5.32535,1.58146 5.11153,10.31342 -0.28868,11.78852 -0.5588,0.15264 -1.7839,0.27817 -2.72244,0.27895 l -1.70644,0.002 -0.0716,2.9845 -0.0716,2.9845 -2.2225,0.0734 -2.2225,0.0734 v -9.28089 z m 8.16578,-1.64447 c 0.51634,-0.63765 0.61415,-1.81287 0.21323,-2.562 -0.28281,-0.52844 -1.69632,-1.00679 -2.98151,-1.009 l -0.8255,-0.001 v 2.18953 2.18953 l 1.56178,-0.11297 c 1.23811,-0.0896 1.65923,-0.23331 2.032,-0.69367 z m 7.32822,1.63458 v -9.271 h 4.953 4.953 v 2.032 2.032 h -2.667 -2.667 v 1.524 1.524 h 2.667 2.667 v 2.032 2.032 h -2.667 -2.667 v 1.524 1.524 h 2.667 2.667 v 2.159 2.159 h -4.953 -4.953 z m 12.954,0 v -9.271 h 1.99278 1.99278 l 3.34047,5.0165 3.34046,5.0165 7.6e-4,-5.0165 7.5e-4,-5.0165 h 2.286 2.286 v 9.28169 9.28168 l -1.9685,-0.0742 -1.9685,-0.0742 -3.429,-5.08 -3.429,-5.08 -0.0688,5.1435 -0.0688,5.1435 h -2.15374 -2.15374 z m -60.93342,-28.97594 c -3.95622,-1.06682 -6.98012,-4.12758 -8.01922,-8.11694 -0.34581,-1.32763 -0.38902,-10.33225 -0.38635,-80.49899 0.002,-65.15369 0.0626,-79.226783 0.34277,-80.274136 1.09813,-4.1048 4.34884,-7.324424 8.31934,-8.239787 1.54282,-0.355683 158.92694,-0.355683 160.46976,0 4.09708,0.944545 7.5015,4.440805 8.39433,8.620787 0.22586,1.05741 0.27961,20.691934 0.22109,80.772006 l -0.0773,79.375 -0.58884,1.45808 c -1.19165,2.95073 -3.63835,5.39743 -6.58908,6.58908 l -1.45808,0.58884 -79.629,0.0478 c -68.99175,0.0414 -79.81207,-0.002 -80.99942,-0.32175 z m 160.81745,-3.49593 c 1.68065,-0.65255 3.58167,-2.44466 4.43368,-4.17967 l 0.71129,-1.44846 v -79.375 -79.375006 l -0.66278,-1.397 c -0.85742,-1.807265 -2.25093,-3.206517 -4.01931,-4.035881 l -1.41391,-0.663119 h -79.375 -79.375 l -1.397,0.674689 c -1.82533,0.881555 -3.21937,2.266676 -4.03813,4.012308 l -0.66087,1.409003 v 79.375006 79.375 l 0.54887,1.18762 c 1.12757,2.43981 3.40223,4.2571 5.96159,4.76288 0.61049,0.12065 36.41111,0.20268 79.59554,0.18239 75.58835,-0.0355 78.53049,-0.0542 79.69103,-0.50476 z m -43.87703,-26.98579 c -3.91338,-0.39036 -6.21322,-0.72887 -8.73333,-1.28544 -12.11899,-2.67653 -21.22267,-9.25545 -27.11494,-19.59503 -0.6098,-1.07006 -1.10873,-2.01695 -1.10873,-2.10418 0,-0.0872 1.00012,-0.23136 2.2225,-0.32026 2.08113,-0.15136 3.89471,-0.45226 7.12953,-1.18289 0.74306,-0.16784 1.38811,-0.26542 1.43343,-0.21685 0.0453,0.0486 0.77451,1.11701 1.62042,2.37431 11.57576,17.20538 32.46473,22.27131 62.24633,15.09579 2.29196,-0.55222 4.20771,-0.96353 4.25723,-0.91402 0.1201,0.1201 -4.38311,2.22496 -6.77344,3.16599 -3.66896,1.4444 -12.87356,3.45934 -20.02609,4.38382 -3.75297,0.48507 -12.73461,0.83998 -15.15291,0.59876 z M 353.35554,105.3083 c -0.0767,-1.01283 -0.20139,-2.84163 -0.27715,-4.064 l -0.13776,-2.222502 h 7.58379 7.58379 l 0.15452,3.492502 c 0.085,1.92087 0.22957,3.74967 0.32131,4.064 l 0.1668,0.5715 h -7.62795 -7.62796 z m 85.94584,-3.937 c -10e-4,-1.501777 -0.0743,-3.330577 -0.16238,-4.064002 l -0.16017,-1.3335 h 11.05684 11.05685 l 0.14029,0.5715 c 0.0772,0.314325 0.22048,2.143125 0.31848,4.064002 l 0.17819,3.4925 h -11.21295 -11.21294 l -0.002,-2.7305 z M 408.82359,65.981692 c -0.62865,-0.115786 -3.13042,-0.20097 -5.55949,-0.189298 -4.07218,0.01956 -4.43691,-0.016 -4.67855,-0.456189 -0.77447,-1.410815 -3.45778,-4.579844 -5.69397,-6.724648 -12.32947,-11.825613 -31.40598,-14.620929 -56.96448,-8.347109 -2.16452,0.531323 -3.97397,0.927553 -4.02101,0.880514 -0.13106,-0.131064 4.13363,-2.120122 6.57424,-3.066242 4.02454,-1.560129 12.99351,-3.573818 20.30526,-4.558876 4.11643,-0.554576 13.13714,-0.770288 16.891,-0.403911 14.5058,1.415761 25.31596,7.389813 32.4174,17.914933 0.84166,1.247438 1.86613,2.933363 2.2766,3.746501 l 0.74631,1.478429 -0.57515,-0.03179 c -0.31634,-0.01747 -1.08951,-0.126525 -1.71816,-0.242311 z"
             style="fill:#585759;stroke-width:0.25400001" />
          <path
             inkscape:connector-curvature="0"
             id="path264"
             d="m 342.72917,228.81874 c -2.77815,-0.49239 -5.51546,-2.63055 -6.75578,-5.27705 -0.60777,-1.29679 -0.68188,-1.74997 -0.67444,-4.12389 0.0101,-3.21586 0.44937,-4.38583 2.43516,-6.48551 1.73079,-1.83006 3.5216,-2.67144 6.0556,-2.84512 3.47985,-0.23852 6.54653,1.21492 8.45044,4.00502 4.72078,6.91809 -1.266,16.18787 -9.51098,14.72655 z m 3.68605,-4.6641 c 1.12924,-0.47183 2.38469,-1.97365 2.73386,-3.27035 0.89217,-3.31328 -1.31286,-6.37891 -4.586,-6.37584 -1.55125,0.002 -2.57614,0.43394 -3.60483,1.52118 -0.89423,0.94512 -1.22266,1.86644 -1.22266,3.42982 0,3.54657 3.51514,6.0174 6.67963,4.69519 z m 9.83037,-4.76516 v -9.17232 l 4.5085,0.10431 c 3.96818,0.0918 4.63026,0.16834 5.5245,0.6386 2.12765,1.11889 3.02254,2.71979 3.024,5.40973 10e-4,2.14843 -0.44656,3.35249 -1.72026,4.62618 -1.11857,1.11858 -2.26914,1.51799 -4.79624,1.665 l -2.2225,0.12929 v 2.88577 2.88576 h -2.159 -2.159 z m 7.8704,-1.19842 c 0.66715,-0.49571 0.91425,-1.44839 0.64939,-2.50369 -0.19519,-0.77771 -1.48784,-1.34957 -3.05063,-1.34957 h -1.15116 v 2.11667 c 0,1.16417 0.0857,2.20439 0.1905,2.31161 0.32311,0.33064 2.6872,-0.0737 3.3619,-0.57502 z m 7.6236,1.22674 v -9.144 h 4.953 4.953 v 2.032 2.032 h -2.80667 -2.80668 l 0.0762,1.4605 0.0762,1.4605 2.7305,0.0721 2.7305,0.0721 v 2.02341 2.0234 h -2.80612 -2.80612 l 0.0756,1.5875 0.0756,1.5875 2.7305,0.0721 2.7305,0.0721 v 1.89641 1.8964 h -4.953 -4.953 z m 12.954,0 v -9.144 h 2.01128 2.01129 l 0.58125,0.9525 c 1.69269,2.77384 5.89787,8.9535 6.09274,8.9535 0.12399,0 0.22544,-2.22885 0.22544,-4.953 v -4.953 h 2.159 2.159 v 9.144 9.144 h -1.99415 -1.99415 l -3.27635,-4.94713 c -1.80199,-2.72092 -3.36207,-4.94977 -3.46685,-4.953 -0.10478,-0.003 -0.1905,2.22298 -0.1905,4.94713 v 4.953 h -2.159 -2.159 z m -59.944,-28.70491 c -4.62006,-0.79694 -8.2476,-4.4144 -9.13874,-9.11336 -0.17283,-0.91133 -0.25926,-27.48247 -0.25926,-79.70476 0,-87.324118 -0.14596,-80.391114 1.75406,-83.315318 1.119,-1.722196 2.85023,-3.378644 4.30894,-4.122824 2.67975,-1.367105 -2.48748,-1.286834 82.837,-1.286834 85.32449,0 80.15725,-0.08027 82.837,1.286834 1.45871,0.74418 3.18994,2.400628 4.30894,4.122824 1.90002,2.924204 1.75406,-4.0088 1.75406,83.315318 0,52.22229 -0.0864,78.79343 -0.25926,79.70476 -0.37803,1.99335 -1.56856,4.34775 -2.93973,5.81364 -1.44061,1.54013 -4.14003,2.95089 -6.32601,3.30607 -1.83439,0.29805 -157.14828,0.29184 -158.877,-0.006 z m 160.66104,-4.06109 c 2.09664,-1.05189 3.38245,-2.57693 4.03601,-4.78693 0.39364,-1.33107 0.41926,-7.21147 0.35032,-80.43007 l -0.0744,-78.994006 -0.74746,-1.475175 c -0.86212,-1.701465 -2.24293,-3.048282 -3.92045,-3.823943 l -1.17409,-0.542882 h -79.629 -79.629 l -1.17409,0.542882 c -1.68522,0.779221 -3.14876,2.205626 -3.96185,3.86134 l -0.70606,1.437778 v 79.629006 79.629 l 0.60051,1.143 c 0.95246,1.81289 1.7446,2.7328 2.97325,3.45284 2.44195,1.43108 -3.05669,1.34464 82.28428,1.2935 l 79.00004,-0.0473 z m -46.99604,-26.84779 c -2.17123,-0.19747 -7.01679,-1.11789 -9.16999,-1.74187 -10.7135,-3.10464 -18.60098,-9.16584 -24.11112,-18.52837 -0.76444,-1.29889 -1.38989,-2.41298 -1.38989,-2.47576 0,-0.0628 1.01216,-0.18599 2.24925,-0.2738 1.84367,-0.13087 5.04416,-0.66748 8.03775,-1.34765 0.40349,-0.0917 0.72676,0.23964 1.57133,1.61041 2.34388,3.80425 6.06589,7.82099 9.8083,10.58498 12.15769,8.97918 29.69105,10.81875 52.24737,5.4817 1.74625,-0.41318 3.46075,-0.81393 3.81,-0.89055 0.92446,-0.20283 -2.56639,1.5936 -5.02971,2.58833 -4.42545,1.78708 -14.63168,3.97628 -22.36345,4.79688 -3.13983,0.33324 -12.81761,0.45418 -15.65984,0.1957 z M 353.36312,105.1813 c -0.089,-0.94298 -0.16273,-2.71463 -0.16372,-3.937 l -0.002,-2.222502 h 7.493 7.493 l 0.002,2.603502 c 10e-4,1.43192 0.0743,3.20357 0.16238,3.937 l 0.16017,1.3335 h -7.49165 -7.49165 l -0.16193,-1.7145 z m 85.93767,-4.191 c -0.002,-1.711327 -0.0736,-3.540127 -0.16023,-4.064002 l -0.15744,-0.9525 h 11.0573 11.05729 l 0.14465,1.4605 c 0.0796,0.803275 0.21741,2.632072 0.30634,4.064002 l 0.16169,2.6035 h -11.2034 -11.2034 l -0.003,-3.1115 z m -30.4772,-34.993444 c -2.19126,-0.37452 -5.98234,-0.521149 -7.84719,-0.303512 l -1.87819,0.219197 -0.78881,-1.144783 c -5.06647,-7.352866 -11.90994,-12.390639 -20.79543,-15.308401 -8.25407,-2.710421 -18.89649,-3.219592 -30.66638,-1.46719 -3.41473,0.508414 -10.33551,1.947136 -12.90933,2.68365 -0.74379,0.212837 -1.40467,0.33465 -1.46862,0.270695 -0.0992,-0.09917 1.24808,-0.726734 6.74603,-3.142333 2.6077,-1.145728 15.10525,-3.709137 21.72892,-4.456882 4.15772,-0.469364 13.55202,-0.401397 17.32153,0.125323 14.49995,2.026102 25.0102,8.924593 31.74955,20.839078 1.19761,2.117263 1.21255,2.096145 -1.19208,1.685158 z"
             style="fill:#18161b;stroke-width:0.25400001" />
        </g>
      </g>
    </g>
  </g>
</svg>
